<?xml version="1.0" encoding="UTF-8"?><svg id="Layer_1" xmlns="http://www.w3.org/2000/svg" width="512" height="512" viewBox="0 0 512 512"><path d="M109.5469,420.03c-.8809-1.043-1.9468-1.7959-3.1978-2.2598-1.2515-.4629-2.5498-.6714-3.8936-.6255-1.3447.0464-2.5029.3472-3.4761.9038-1.6685,1.437-3.5459,2.5376-5.6313,3.3022-2.0859.7646-4.2412,1.147-6.4658,1.147-2.3184,0-4.4966-.4399-6.5356-1.3208-2.04-.8799-3.8477-2.0508-5.4224-3.5107-1.5767-1.4604-2.8628-3.1519-3.8589-5.0757-.9976-1.9229-1.5884-3.9507-1.7729-6.083h43.9395c2.9199,0,4.9819-.3936,6.1875-1.1821,1.2046-.7876,1.8076-2.3398,1.8076-4.6582,0-4.7729-.8809-9.1997-2.6421-13.2788-1.7617-4.0781-4.1714-7.6011-7.2305-10.5679-3.0586-2.9658-6.6392-5.2837-10.7412-6.9526-4.1021-1.6685-8.5166-2.5029-13.2446-2.5029s-9.2007.8584-13.418,2.5728c-4.2183,1.7153-7.9258,4.0908-11.124,7.126-3.1982,3.0366-5.7246,6.6519-7.5781,10.8462-1.854,4.1953-2.7808,8.7944-2.7808,13.8003,0,4.7275.9038,9.1772,2.7114,13.3486s4.2754,7.7988,7.4043,10.8804c3.1289,3.083,6.7666,5.5273,10.9155,7.335,4.1475,1.8076,8.5859,2.7114,13.3135,2.7114,2.6875,0,5.4688-.29,8.3433-.8691,2.873-.5786,5.4683-1.3901,7.7866-2.4331,2.3169-1.043,4.2173-2.3052,5.7007-3.7891,1.4829-1.4829,2.2251-3.1289,2.2251-4.9365,0-1.5752-.4414-2.8853-1.3213-3.9277ZM71.2046,390.0652c1.0884-1.8774,2.4438-3.5112,4.0674-4.9019,1.6216-1.3901,3.4761-2.479,5.5615-3.2676,2.0859-.7876,4.2637-1.1821,6.5352-1.1821,2.2246,0,4.3457.3945,6.3618,1.1821,2.0161.7886,3.7998,1.8774,5.353,3.2676,1.5522,1.3906,2.8267,3.0244,3.8242,4.9019.9961,1.877,1.5869,3.9277,1.7725,6.1528h-35.5269c.2783-2.2251.9614-4.2759,2.0513-6.1528Z" style="fill:#231f20;"/><path d="M155.6416,362.9158h20.4404c1.2046,0,2.3286-.1968,3.3716-.5908,1.043-.3936,1.9468-.9614,2.7114-1.7036.7651-.7407,1.3667-1.5991,1.8076-2.5723.4399-.9731.6606-2.062.6606-3.2676,0-1.2046-.2324-2.3174-.6953-3.3374-.4639-1.019-1.0776-1.8877-1.8423-2.6069-.7646-.7183-1.6807-1.2744-2.7461-1.6685-1.0669-.3936-2.1792-.5913-3.3374-.5913h-57.4961c-1.2061,0-2.3296.2207-3.3721.6606-1.043.4409-1.936,1.0317-2.6768,1.7729-.7422.7417-1.3208,1.6108-1.7383,2.6069-.417.9976-.6255,2.0508-.6255,3.1636,0,1.2056.2192,2.3062.6606,3.3022.4399.9971,1.0308,1.8545,1.7725,2.5723.7407.7192,1.6221,1.2754,2.6421,1.6689,1.019.394,2.1313.5908,3.3374.5908h20.7178l.1392,64.8662c0,1.1592.1968,2.2363.5908,3.2329.3936.9971.939,1.8662,1.6338,2.6069.6958.7422,1.5405,1.3208,2.5381,1.7383.9961.417,2.0962.6255,3.3022.6255,1.1582,0,2.2354-.2085,3.2329-.6255.9961-.4175,1.8423-.9961,2.5376-1.7383.6953-.7407,1.2393-1.6099,1.6338-2.6069.3931-.9966.5908-2.0737.5908-3.2329l.2085-64.8662Z" style="fill:#231f20;"/><path d="M235.6641,405.3254c1.2046-.7876,1.8076-2.3398,1.8076-4.6582,0-4.7729-.8813-9.1997-2.6421-13.2788-1.7617-4.0781-4.1714-7.6011-7.2305-10.5679-3.0591-2.9658-6.6396-5.2837-10.7412-6.9526-4.1025-1.6685-8.5171-2.5029-13.2446-2.5029s-9.2012.8584-13.4185,2.5728c-4.2183,1.7153-7.9253,4.0908-11.1235,7.126-3.1982,3.0366-5.7251,6.6519-7.5781,10.8462-1.8545,4.1953-2.7812,8.7944-2.7812,13.8003,0,4.7275.9038,9.1772,2.7114,13.3486,1.8081,4.1714,4.2759,7.7988,7.4048,10.8804,3.1284,3.083,6.7661,5.5273,10.915,7.335,4.1479,1.8076,8.5859,2.7114,13.314,2.7114,2.6875,0,5.4688-.29,8.3428-.8691,2.8735-.5786,5.4688-1.3901,7.7866-2.4331,2.3174-1.043,4.2173-2.3052,5.7012-3.7891,1.4829-1.4829,2.2246-3.1289,2.2246-4.9365,0-1.5752-.4409-2.8853-1.3208-3.9277-.8809-1.043-1.9468-1.7959-3.1982-2.2598-1.2515-.4629-2.5493-.6714-3.8931-.6255-1.3452.0464-2.5029.3472-3.4761.9038-1.6689,1.437-3.5459,2.5376-5.6318,3.3022s-4.2412,1.147-6.4658,1.147c-2.3184,0-4.4961-.4399-6.5352-1.3208-2.04-.8799-3.8477-2.0508-5.4229-3.5107-1.5762-1.4604-2.8623-3.1519-3.8589-5.0757-.9971-1.9229-1.5879-3.9507-1.7729-6.083h43.9395c2.9204,0,4.9819-.3936,6.188-1.1821ZM185.3979,396.218c.2783-2.2251.9614-4.2759,2.0513-6.1528,1.0884-1.8774,2.4438-3.5112,4.0669-4.9019,1.6216-1.3901,3.4761-2.479,5.562-3.2676,2.0854-.7876,4.2637-1.1821,6.5352-1.1821,2.2246,0,4.3452.3945,6.3613,1.1821,2.0161.7886,3.7998,1.8774,5.3535,3.2676,1.5522,1.3906,2.8267,3.0244,3.8237,4.9019.9961,1.877,1.5869,3.9277,1.7729,6.1528h-35.5269Z" style="fill:#231f20;"/><path d="M306.9263,367.4348c-1.7153,0-3.2104.6147-4.4844,1.8423-1.2754,1.2285-2.1899,3.3027-2.7461,6.2227l-.6113,1.875c-2.5732-3.0366-5.6929-5.4492-9.3657-7.2285-3.731-1.8076-7.9604-2.7114-12.688-2.7114s-9.166.9038-13.314,2.7114c-4.1489,1.8076-7.7866,4.2646-10.915,7.3696-3.1289,3.106-5.5967,6.7329-7.4043,10.8804-1.8076,4.1489-2.7119,8.5864-2.7119,13.314s.9043,9.1772,2.7119,13.3486,4.2754,7.8105,7.4043,10.9155c3.1284,3.1055,6.7661,5.5615,10.915,7.3691,4.1479,1.8076,8.5864,2.7119,13.314,2.7119s8.957-.9043,12.688-2.7119c3.4824-1.687,6.4634-3.9473,8.9575-6.7651l1.0195,4.0542c.5093,1.6226,1.3091,2.9316,2.3984,3.9277,1.0884.9961,2.4912,1.4951,4.2061,1.4951,1.6221,0,2.8735-.4521,3.7544-1.356.8799-.9038,1.3213-2.2129,1.3213-3.9282v-58.8867c0-2.9658-1.4839-4.4497-4.4497-4.4497ZM293.4385,408.906c-.9277,2.2485-2.1899,4.2061-3.7891,5.875-1.5991,1.6685-3.4761,2.9893-5.6313,3.9629-2.1553.9731-4.4844,1.46-6.9873,1.46s-4.8438-.4868-7.022-1.46c-2.1792-.9736-4.0669-2.2944-5.6665-3.9629-1.5986-1.6689-2.8501-3.6265-3.7539-5.875-.9038-2.2476-1.356-4.6465-1.356-7.1958,0-2.5029.4521-4.8774,1.356-7.1265.9038-2.2476,2.1553-4.2061,3.7539-5.8745,1.5996-1.6685,3.4873-2.9897,5.6665-3.9629,2.1782-.9731,4.519-1.46,7.022-1.46s4.832.4868,6.9873,1.46,4.0322,2.2944,5.6313,3.9629,2.8613,3.627,3.7891,5.8745c.9268,2.249,1.3906,4.6235,1.3906,7.1265,0,2.5493-.4639,4.9482-1.3906,7.1958Z" style="fill:#231f20;"/><path d="M341.5845,433.3435c4.1475,1.8076,8.5859,2.7119,13.3135,2.7119,3.708,0,7.2188-.4639,10.5332-1.3906,3.313-.9268,6.2104-2.1206,8.6904-3.5806,2.4785-1.46,4.4375-3.1167,5.875-4.9712,1.4355-1.853,2.1553-3.7075,2.1553-5.5615,0-1.6221-.3945-3.0474-1.1821-4.2759-.7891-1.2275-1.8315-2.0967-3.1289-2.6074-1.2056-.5093-2.4678-.6953-3.7891-.5562-1.3208.1392-2.5146.4868-3.5806,1.043-1.6226,1.4839-3.4878,2.666-5.5967,3.5459-2.1094.8809-4.2754,1.437-6.5,1.6685-2.8745.3716-5.5859.2085-8.1348-.4868-2.5493-.6953-4.7969-1.8184-6.7437-3.3716-1.9468-1.5527-3.4883-3.4995-4.6235-5.8403-1.1362-2.3398-1.7031-4.9937-1.7031-7.9604,0-3.0591.6016-5.7583,1.8076-8.0996,1.2046-2.3398,2.8037-4.2759,4.7969-5.8052,1.9927-1.5298,4.2642-2.6182,6.8135-3.2676,2.5488-.6484,5.1445-.8105,7.7871-.4868,2.7808.5107,5.376,1.333,7.7866,2.4683,2.4092,1.1362,4.7974,2.2832,7.1606,3.4414,1.1582.2324,2.2705.1978,3.3374-.1045,1.0654-.3008,1.9922-.7876,2.7808-1.46.7881-.6714,1.4136-1.5054,1.877-2.5029.4629-.9961.6958-2.0508.6958-3.1631,0-1.9922-.8813-3.939-2.6421-5.8403-1.3447-1.5293-2.9438-2.873-4.7969-4.0322-1.855-1.1582-3.8589-2.1431-6.0142-2.9546-2.1553-.8105-4.3921-1.4253-6.709-1.8428-2.3184-.417-4.6353-.6255-6.9526-.6255-4.7275,0-9.166.9038-13.3135,2.7114-4.1489,1.8076-7.7764,4.2646-10.8809,7.3696-3.106,3.106-5.562,6.7329-7.3696,10.8804-1.8076,4.1489-2.7114,8.5864-2.7114,13.314s.9038,9.1772,2.7114,13.3486,4.2637,7.8105,7.3696,10.9155c3.1045,3.1055,6.7319,5.5615,10.8809,7.3691Z" style="fill:#231f20;"/><path d="M457.2725,388.1184c-1.5068-4.1479-3.6157-7.7632-6.3267-10.8462-2.7119-3.0815-5.9912-5.5269-9.8379-7.3345-3.8477-1.8076-8.0884-2.7114-12.7227-2.7114-2.7354,0-5.3081.4517-7.7178,1.3555-2.4102.9038-4.5884,2.0283-6.5347,3.3721-1.9468,1.3447-3.5806,2.8159-4.9019,4.415-.8794,1.0645-1.5513,2.0791-2.0508,3.0513v-25.1255c0-1.1123-.2207-2.166-.6602-3.1631-.4414-.9961-1.0322-1.8652-1.7729-2.6074-.7422-.7407-1.6113-1.3208-2.6074-1.7383-.9976-.417-2.0513-.6255-3.1631-.6255-1.1592,0-2.2368.2085-3.2329.6255-.9976.4175-1.8667.9976-2.6074,1.7383-.7417.7422-1.3208,1.6113-1.7378,2.6074-.4175.9971-.626,2.0508-.626,3.1631v73.4873c0,1.1592.2085,2.2363.626,3.2329.417.9971.9961,1.8662,1.7378,2.6069.7407.7422,1.6099,1.3208,2.6074,1.7383.9961.417,2.0737.6255,3.2329.6255,1.1118,0,2.1655-.2085,3.1631-.6255.9961-.4175,1.8652-.9961,2.6074-1.7383.7407-.7407,1.3315-1.6099,1.7729-2.6069.4395-.9966.6602-2.0737.6602-3.2329v-24.8896c0-2.4565.4976-4.8667,1.4946-7.2305.9961-2.3643,2.3521-4.4844,4.0674-6.3618,1.7144-1.877,3.7075-3.3828,5.979-4.519,2.2705-1.1353,4.6812-1.7031,7.2305-1.7031,2.5029,0,4.7974.4863,6.8828,1.46,2.0859.9731,3.8936,2.2944,5.4229,3.9629,1.5298,1.6685,2.7227,3.627,3.5806,5.8745.8569,2.249,1.2866,4.6235,1.2866,7.1265v25.1675c0,1.2061.1733,2.3638.521,3.4766.3477,1.1123.8569,2.0977,1.5298,2.9546.6714.8584,1.5176,1.5537,2.5376,2.0859,1.0186.5322,2.2246.7993,3.6152.7993,1.1577,0,2.2476-.2324,3.2676-.6953,1.019-.4624,1.8882-1.0776,2.6069-1.8423.7183-.7646,1.2861-1.6567,1.7036-2.6768.4175-1.019.626-2.0615.626-3.1284v-26.2109c0-4.7275-.7544-9.165-2.2598-13.3135Z" style="fill:#231f20;"/><path d="M69.0967,475.0867c-.144-.1104-.3101-.1909-.4985-.2407s-.3877-.0747-.5981-.0747h-10.7485v-6.7285h8.7886c.3208,0,.5952-.0859.8223-.2578.2266-.1714.3677-.4014.4233-.6895.0552-.2212.0581-.4258.0083-.6143s-.1382-.3491-.2656-.4819-.2798-.2383-.457-.3159c-.1772-.0771-.3652-.1162-.5649-.1162h-8.7549v-6.7949h10.8979c.4546,0,.7949-.1338,1.022-.4014s.3403-.5601.3403-.8779-.1157-.6104-.3486-.8779c-.2324-.2676-.5811-.4014-1.0464-.4014h-12.8047c-.334,0-.5566.0527-.668.1582-.1118.1055-.1675.2412-.1675.4072,0,.1553.022.3184.0664.4902s.0723.3354.083.4907v17.8574c0,.5649.1392,1.0029.418,1.313.2788.3105.7134.4658,1.3047.4658h11.7017c.3984,0,.75-.1133,1.0547-.3408.3047-.2266.457-.5508.457-.9717,0-.2324-.042-.4292-.1245-.5898-.0835-.1606-.1973-.2964-.3408-.4072Z" style="fill:#231f20;"/><path d="M78.6831,456.197c-.3882,0-.7036.1274-.9473.3823-.2441.2549-.3657.5649-.3657.9302v18.5742c0,.3652.1216.6758.3657.9302.2437.2549.5591.3823.9473.3823.354,0,.6611-.1274.9219-.3823.2598-.2544.3901-.5649.3901-.9302v-18.5742c0-.3652-.1304-.6753-.3901-.9302-.2607-.2549-.5679-.3823-.9219-.3823Z" style="fill:#231f20;"/><path d="M102.2163,463.449c-.7144-.7144-1.5562-1.2764-2.5254-1.6865-.9692-.4092-2.0132-.6143-3.1318-.6143s-2.1821.1963-3.1895.5894c-1.0083.3936-1.8916.9473-2.6499,1.6616-.7593.7144-1.3623,1.5728-1.811,2.5752s-.6729,2.1128-.6729,3.3311c0,1.1187.2129,2.168.6396,3.1479.4263.9805,1.0107,1.8359,1.7524,2.5669s1.6035,1.3101,2.5835,1.7363c.9805.4263,2.0293.6396,3.1484.6396.6533,0,1.3179-.0776,1.9937-.2324.6753-.1553,1.29-.3574,1.8442-.6064.5532-.2495,1.0049-.5342,1.354-.856.3486-.3208.5229-.6479.5229-.98,0-.2769-.0742-.5039-.2241-.6812-.1494-.1772-.3267-.3076-.5312-.3906-.2056-.083-.4243-.1133-.6567-.0913-.2324.0225-.4316.0889-.5981.1992-.4985.4653-1.0688.8174-1.7109,1.0552-.6426.2383-1.3018.3569-1.9771.3569-.7202,0-1.3955-.1328-2.0269-.3984s-1.1909-.6255-1.6782-1.0801c-.4873-.4541-.8833-.9824-1.1875-1.5864-.3052-.6035-.4849-1.2485-.54-1.9355h12.1113c.3213,0,.5786-.0166.7725-.0498.1934-.0332.3408-.0884.4404-.166s.166-.1831.1992-.3159.0498-.2988.0498-.498c0-1.1299-.2051-2.1821-.6147-3.1567s-.9722-1.8193-1.686-2.5337ZM90.9438,468.3084c.0771-.6978.2798-1.3457.6064-1.9438.3262-.5981.7417-1.1211,1.2456-1.5698.5044-.4487,1.0771-.8003,1.7197-1.0552.6426-.2544,1.3237-.3818,2.0435-.3818.709,0,1.373.1274,1.9937.3818.6201.2549,1.1655.6064,1.6367,1.0552.4707.4487.8525.9717,1.1465,1.5698.293.5981.4673,1.2461.5229,1.9438h-10.915Z" style="fill:#231f20;"/><path d="M124.7939,461.5632c-.1162-.1216-.2573-.2158-.4233-.2822-.166-.0889-.3379-.1387-.5151-.1494-.1772-.0112-.3438.0137-.4985.0747-.1553.061-.2988.1494-.4316.2656-.1333.1162-.2324.2573-.2993.4238l-4.8345,11.5132-4.7847-11.48c-.1665-.3325-.4155-.562-.7476-.6895-.3325-.1274-.6646-.1138-.9971.0415-.3545.1553-.5845.4014-.6895.7393-.1055.3379-.0801.6729.0747,1.0049l5.9312,13.6235c.1328.2549.3154.4541.5483.5981.2324.1436.4873.1934.7642.1494.2212.0107.4404-.0498.6562-.1826.2158-.1333.3848-.3213.5068-.5649l5.981-13.6733c.0664-.166.1021-.335.1079-.5068.0054-.1714-.0225-.3345-.083-.4897-.061-.1553-.1494-.2935-.2661-.4155Z" style="fill:#231f20;"/><path d="M146.7324,461.198c-.3101,0-.5981.1411-.8638.4233-.2656.2827-.4321.7949-.4985,1.5366l-.2026,1.043c-.1528-.2129-.2886-.4404-.4619-.6357-.6533-.7363-1.437-1.3179-2.3506-1.7441-.9136-.4268-1.9302-.6396-3.0488-.6396s-2.168.2129-3.1484.6396c-.98.4263-1.8413,1.0078-2.583,1.7441-.7422.7368-1.3267,1.5977-1.7529,2.5835s-.6396,2.0381-.6396,3.1567.2134,2.1709.6396,3.1562c.4263.9863,1.0107,1.8472,1.7529,2.5835.7417.7368,1.603,1.3184,2.583,1.7446.9805.4263,2.0298.6396,3.1484.6396s2.1353-.2134,3.0488-.6396,1.6973-1.0078,2.3506-1.7446c.1572-.1772.2788-.3848.4189-.5767l.2456,1.9307c.0664.3218.1968.5732.3906.7559.1938.1831.4458.2744.7559.2744.2769,0,.4985-.0889.6646-.2656.1665-.1772.249-.4268.249-.748v-14.52c0-.4653-.2324-.6978-.6978-.6978ZM144.332,471.4734c-.2827.6812-.6675,1.2769-1.1548,1.7861s-1.063.9136-1.7275,1.2124c-.6646.2993-1.3789.4487-2.1436.4487-.7642,0-1.4785-.1494-2.1431-.4487-.6646-.2988-1.2402-.7031-1.7275-1.2124-.4878-.5093-.8726-1.105-1.1548-1.7861s-.4238-1.4038-.4238-2.168c0-.7754.1416-1.5039.4238-2.1846.2822-.6816.667-1.2769,1.1548-1.7861.4873-.5093,1.063-.9111,1.7275-1.2046s1.3789-.4404,2.1431-.4404c.7646,0,1.479.147,2.1436.4404s1.2402.6953,1.7275,1.2046.8721,1.1045,1.1548,1.7861c.2822.6807.4233,1.4092.4233,2.1846,0,.7642-.1411,1.4868-.4233,2.168Z" style="fill:#231f20;"/><path d="M163.6953,461.6462l-2.3091.0054v-4.1421c0-.3652-.1274-.6753-.3823-.9302s-.5649-.3823-.9307-.3823c-.3877,0-.7031.1274-.9468.3823s-.3657.5649-.3657.9302v4.1484l-2.2095.0049c-.3652,0-.6729.1206-.9219.3608-.2495.2407-.374.5469-.374.9185,0,.3545.1245.6562.374.9058.249.249.5566.3735.9219.3735h2.2095v11.8623c0,.3652.1221.6758.3657.9302.2437.2549.5591.3823.9468.3823.3657,0,.6758-.1274.9307-.3823.2549-.2544.3823-.5649.3823-.9302v-11.8623h2.3091c.1768,0,.3462-.0332.5068-.0996.1602-.0664.2988-.1577.415-.2739.1167-.1167.2075-.252.2744-.4072.0664-.1548.0996-.3213.0996-.4985,0-.3765-.1274-.6865-.3823-.9302s-.5596-.3657-.9136-.3657Z" style="fill:#231f20;"/><path d="M184.8198,463.449c-.7144-.7144-1.5566-1.2764-2.5254-1.6865-.9692-.4092-2.0132-.6143-3.1318-.6143s-2.1821.1963-3.1899.5894c-1.0078.3936-1.8911.9473-2.6499,1.6616s-1.3623,1.5728-1.8105,2.5752c-.4487,1.0024-.6729,2.1128-.6729,3.3311,0,1.1187.2129,2.168.6396,3.1479.4263.9805,1.0103,1.8359,1.7524,2.5669.7417.731,1.6035,1.3101,2.5835,1.7363s2.0293.6396,3.1484.6396c.6533,0,1.3179-.0776,1.9937-.2324.6753-.1553,1.29-.3574,1.8442-.6064.5532-.2495,1.0049-.5342,1.354-.856.3486-.3208.5229-.6479.5229-.98,0-.2769-.0742-.5039-.2241-.6812-.1494-.1772-.3267-.3076-.5317-.3906s-.4238-.1133-.6562-.0913c-.2324.0225-.4321.0889-.5981.1992-.4985.4653-1.0688.8174-1.7109,1.0552-.6426.2383-1.3018.3569-1.9771.3569-.7202,0-1.3955-.1328-2.0273-.3984-.6309-.2656-1.1904-.6255-1.6777-1.0801-.4873-.4541-.8833-.9824-1.188-1.5864-.3047-.6035-.4844-1.2485-.5396-1.9355h12.1113c.3213,0,.5786-.0166.7725-.0498.1934-.0332.3408-.0884.4404-.166s.166-.1831.1992-.3159.0498-.2988.0498-.498c0-1.1299-.2051-2.1821-.6147-3.1567-.4102-.9746-.9722-1.8193-1.686-2.5337ZM173.5474,468.3084c.0771-.6978.2793-1.3457.6064-1.9438.3262-.5981.7417-1.1211,1.2456-1.5698.5044-.4487,1.0771-.8003,1.7197-1.0552.6421-.2544,1.3237-.3818,2.0435-.3818.7085,0,1.373.1274,1.9937.3818.6201.2549,1.1655.6064,1.6367,1.0552.4702.4487.8525.9717,1.146,1.5698s.4678,1.2461.5234,1.9438h-10.915Z" style="fill:#231f20;"/><path d="M222.9229,475.0867c-.144-.1104-.3101-.1909-.4985-.2407s-.3877-.0747-.5977-.0747h-10.749v-6.7285h8.7886c.3208,0,.5952-.0859.8223-.2578.2271-.1714.3682-.4014.4233-.6895.0557-.2212.0586-.4258.0083-.6143-.0498-.1885-.1382-.3491-.2656-.4819s-.2798-.2383-.457-.3159c-.1768-.0771-.3652-.1162-.5645-.1162h-8.7554v-6.7949h10.8984c.4541,0,.7944-.1338,1.0215-.4014s.3408-.5601.3408-.8779-.1162-.6104-.3491-.8779c-.2324-.2676-.5811-.4014-1.0464-.4014h-12.8042c-.3345,0-.5571.0527-.6685.1582-.1118.1055-.1675.2412-.1675.4072,0,.1553.022.3184.0669.4902.0439.1719.0718.3354.0825.4907v17.8574c0,.5649.1396,1.0029.418,1.313.2788.3105.7139.4658,1.3047.4658h11.7017c.3984,0,.75-.1133,1.0547-.3408.3047-.2266.457-.5508.457-.9717,0-.2324-.0415-.4292-.1245-.5898s-.1968-.2964-.3408-.4072Z" style="fill:#231f20;"/><path d="M244.064,461.5632c-.1162-.1216-.2573-.2158-.4238-.2822-.166-.0889-.3379-.1387-.5146-.1494-.1777-.0112-.3438.0137-.4985.0747-.1553.061-.2993.1494-.4321.2656s-.2324.2573-.2988.4238l-4.835,11.5132-4.7847-11.48c-.166-.3325-.415-.562-.7476-.6895s-.6646-.1138-.9971.0415c-.3545.1553-.584.4014-.6895.7393-.105.3379-.0801.6729.0752,1.0049l5.9312,13.6235c.1328.2549.3154.4541.5479.5981.2329.1436.4878.1934.7642.1494.2217.0107.4404-.0498.6562-.1826.2163-.1333.3848-.3213.5068-.5649l5.981-13.6733c.0664-.166.1025-.335.1079-.5068.0054-.1714-.022-.3345-.083-.4897s-.1494-.2935-.2656-.4155Z" style="fill:#231f20;"/><path d="M264.3828,463.449c-.7144-.7144-1.5566-1.2764-2.5254-1.6865-.9692-.4092-2.0132-.6143-3.1318-.6143s-2.1821.1963-3.1899.5894c-1.0078.3936-1.8911.9473-2.6494,1.6616-.7593.7144-1.3628,1.5728-1.811,2.5752-.4487,1.0024-.6729,2.1128-.6729,3.3311,0,1.1187.2129,2.168.6396,3.1479.4263.9805,1.0103,1.8359,1.7524,2.5669.7417.731,1.6035,1.3101,2.5835,1.7363s2.0293.6396,3.1484.6396c.6533,0,1.3179-.0776,1.9937-.2324.6753-.1553,1.29-.3574,1.8442-.6064.5532-.2495,1.0049-.5342,1.354-.856.3486-.3208.5229-.6479.5229-.98,0-.2769-.0747-.5039-.2241-.6812s-.3271-.3076-.5317-.3906c-.2051-.083-.4238-.1133-.6562-.0913-.2324.0225-.4321.0889-.5981.1992-.4985.4653-1.0688.8174-1.7109,1.0552-.6426.2383-1.3018.3569-1.9775.3569-.7197,0-1.395-.1328-2.0269-.3984-.6313-.2656-1.1904-.6255-1.6777-1.0801-.4873-.4541-.8833-.9824-1.188-1.5864-.3047-.6035-.4844-1.2485-.5396-1.9355h12.1113c.3208,0,.5786-.0166.772-.0498.1938-.0332.3408-.0884.4409-.166.0996-.0776.166-.1831.1992-.3159.0327-.1328.0498-.2988.0498-.498,0-1.1299-.2051-2.1821-.6147-3.1567-.4102-.9746-.9722-1.8193-1.686-2.5337ZM253.1104,468.3084c.0771-.6978.2793-1.3457.606-1.9438s.7422-1.1211,1.2461-1.5698,1.0771-.8003,1.7197-1.0552c.6421-.2544,1.3232-.3818,2.0435-.3818.7085,0,1.373.1274,1.9937.3818.6201.2549,1.1655.6064,1.6367,1.0552.4702.4487.8525.9717,1.146,1.5698s.4678,1.2461.5234,1.9438h-10.915Z" style="fill:#231f20;"/><path d="M285.3159,461.8958c-.3047-.2217-.6729-.3848-1.105-.4902-.4316-.105-.8833-.1606-1.354-.166s-.8662.0137-1.1875.0581c-.6094.1221-1.1743.3184-1.6948.5898s-.9829.5703-1.3872.897-.7505.6621-1.0381,1.0054c-.1685.2002-.3047.3838-.4238.5576l-.1416-1.2393c-.0332-.376-.0938-.6919-.1826-.9468-.0889-.2544-.1963-.457-.3237-.6064s-.2632-.2544-.4072-.3154-.2935-.0913-.4487-.0913c-.2217,0-.3931.0605-.5146.1826-.1221.1221-.1831.2935-.1831.5146v14.2383c0,.3652.1221.6758.3657.9302.2437.2549.5591.3823.9473.3823.354,0,.6616-.1274.9219-.3823.2598-.2544.3906-.5649.3906-.9302v-7.4263c.0771-.5757.2266-1.1216.4482-1.6367.2217-.5146.4985-.9741.8306-1.3789.3325-.4038.7114-.7529,1.1382-1.0464.4263-.2935.8779-.5122,1.354-.6562.3433-.1108.6841-.1689,1.022-.1748.3374-.0054.667.0029.9883.0254.2324.0107.4292.0244.5898.041.1606.0171.2988.0308.4155.042.1162.0107.2241.0166.3237.0166s.2104-.0166.3325-.0498c.2104-.0776.3931-.208.5479-.3906.1553-.1826.2329-.4014.2329-.6562,0-.3765-.1523-.6753-.457-.897Z" style="fill:#231f20;"/><path d="M306.6143,461.4553c-.1157-.105-.2349-.1855-.3569-.2407-.2217-.1001-.4268-.1416-.6147-.125-.1885.0166-.3599.0664-.5151.1499-.1553.083-.2881.1885-.3984.3154-.1108.1274-.1992.2632-.2656.4072-.0225.0552-.1445.3628-.3662.9219-.2212.5596-.5366,1.3433-.9463,2.3511-.4102,1.0078-.9033,2.2207-1.479,3.6382-.5762,1.418-1.2241,3.0073-1.9438,4.7681l-4.6846-11.5132c-.189-.4873-.4712-.8003-.8477-.9385-.377-.1387-.7368-.1304-1.0801.0249-.4097.1885-.6367.4648-.6812.8306-.0439.3652.0112.7422.166,1.1299,1.0742,2.4478,2.0327,4.6294,2.8745,6.5454.354.8198.7031,1.623,1.0469,2.4092.3428.7866.6504,1.4897.9219,2.1099.271.6206.5732,1.3125.9053,2.0767l-.897,2.1099c-.1885.3325-.4072.5928-.6562.7808-.2495.1885-.5098.3379-.7808.4487-.2715.1108-.54.1997-.8057.2661-.2661.0664-.5044.1411-.7148.2241s-.3794.1909-.5068.3237c-.127.1333-.1909.3213-.1909.5649,0,.4541.1553.7837.4653.9888.3101.2046.6646.3018,1.0635.2905.7642-.0332,1.4038-.1523,1.9189-.3569.5151-.2051.9521-.4819,1.3125-.8311.3594-.3486.6694-.7588.9302-1.2295.2598-.4707.5122-.9941.7559-1.5698l6.6289-15.3511c.0996-.2212.1465-.4263.1411-.6147-.0059-.188-.0444-.3599-.1162-.5151-.0723-.1548-.166-.2847-.2827-.3901Z" style="fill:#231f20;"/><path d="M342.3672,475.0203c-.1274-.1104-.2686-.1934-.4238-.249-.1548-.0552-.3042-.083-.4487-.083h-10.9316v-16.6304c0-.7085-.144-1.2017-.4316-1.4785-.2881-.2769-.7202-.4155-1.2959-.4155-.4102,0-.6812.0498-.8145.1494-.1328.0996-.1992.2329-.1992.3989,0,.1328.0195.2686.0581.4067.0386.1387.0586.2803.0586.4238v17.9595c0,.521.1602.9497.4814,1.2876.3208.3379.7422.5122,1.2627.5234h11.8452c.3213,0,.6152-.1162.8809-.3491.2656-.2324.3989-.5591.3989-.98,0-.2104-.0415-.396-.125-.5566-.0825-.1606-.188-.2964-.3154-.4072Z" style="fill:#231f20;"/><path d="M364.0483,463.449c-.7144-.7144-1.5566-1.2764-2.5254-1.6865-.9692-.4092-2.0132-.6143-3.1318-.6143s-2.1821.1963-3.1899.5894c-1.0078.3936-1.8911.9473-2.6499,1.6616s-1.3623,1.5728-1.8105,2.5752c-.4487,1.0024-.6729,2.1128-.6729,3.3311,0,1.1187.2129,2.168.6396,3.1479.4263.9805,1.0103,1.8359,1.7524,2.5669.7417.731,1.6035,1.3101,2.5835,1.7363s2.0293.6396,3.1484.6396c.6533,0,1.3179-.0776,1.9937-.2324.6753-.1553,1.29-.3574,1.8442-.6064.5532-.2495,1.0049-.5342,1.354-.856.3486-.3208.5229-.6479.5229-.98,0-.2769-.0742-.5039-.2241-.6812-.1494-.1772-.3267-.3076-.5317-.3906s-.4238-.1133-.6562-.0913c-.2324.0225-.4321.0889-.5981.1992-.4985.4653-1.0688.8174-1.7109,1.0552-.6426.2383-1.3018.3569-1.9771.3569-.7202,0-1.3955-.1328-2.0273-.3984-.6309-.2656-1.1904-.6255-1.6777-1.0801-.4873-.4541-.8833-.9824-1.188-1.5864-.3047-.6035-.4844-1.2485-.5396-1.9355h12.1113c.3213,0,.5786-.0166.7725-.0498.1934-.0332.3408-.0884.4404-.166s.166-.1831.1992-.3159.0498-.2988.0498-.498c0-1.1299-.2051-2.1821-.6147-3.1567-.4102-.9746-.9722-1.8193-1.686-2.5337ZM352.7759,468.3084c.0771-.6978.2793-1.3457.6064-1.9438.3262-.5981.7417-1.1211,1.2456-1.5698.5044-.4487,1.0771-.8003,1.7197-1.0552.6421-.2544,1.3237-.3818,2.0435-.3818.7085,0,1.373.1274,1.9937.3818.6201.2549,1.1655.6064,1.6367,1.0552.4702.4487.8525.9717,1.146,1.5698s.4678,1.2461.5234,1.9438h-10.915Z" style="fill:#231f20;"/><path d="M385.9116,469.6541c-.6143-.354-1.3037-.6533-2.0684-.897-.7637-.2437-1.5283-.4761-2.2925-.6978-1.4844-.4321-2.5532-.8555-3.2065-1.271-.6538-.4155-.98-.8442-.98-1.2876,0-.7642.3628-1.3232,1.0879-1.6777.7256-.3545,1.7085-.5039,2.9492-.4487.5869.0332,1.0991.1245,1.5366.2739s.8223.3213,1.1548.5151.6284.3906.8887.5898.501.3652.7227.4985c.1992.0996.4072.1357.623.1079s.4043-.1025.5649-.2241c.1606-.1221.2744-.2852.3403-.4902.0669-.2051.0557-.4238-.0327-.6562-.2661-.5093-.6206-.9526-1.0635-1.3291s-.939-.6836-1.4868-.9224c-.5483-.2378-1.1382-.415-1.7695-.5312-.6313-.1167-1.2739-.1748-1.9272-.1748-1.0742,0-1.9937.1221-2.7578.3657s-1.3931.5596-1.8857.9468c-.4932.3882-.8613.8311-1.1045,1.3291-.2441.4985-.3823.9971-.4155,1.4956-.0444.6309.0718,1.1821.3491,1.6528.2764.4712.6587.8833,1.146,1.2378s1.0464.6646,1.6782.9302c.6313.2661,1.2817.5068,1.9521.7227.6699.2163,1.3291.4238,1.9766.623.6479.1997,1.2266.4102,1.7363.6313.5093.2217.9194.4683,1.2295.7393.3101.2715.4653.5898.4653.9556,0,.4761-.1274.875-.3823,1.1958-.2549.3218-.5981.5791-1.0303.7729-.4316.1938-.9302.3267-1.4951.3984-.5649.0723-1.1626.1025-1.7939.0913-.8535-.0439-1.5869-.2075-2.2017-.4897-.6147-.2827-1.1406-.5923-1.5781-.9307-.4375-.3374-.7949-.6616-1.0718-.9717s-.5039-.5093-.6812-.5981c-.188-.1216-.3735-.1743-.5562-.1577s-.3408.0776-.4736.1826c-.1333.1055-.2354.249-.3076.4321-.0723.1826-.0908.3794-.0581.5898.144.6865.4512,1.29.9224,1.8105.4707.521,1.0381.9609,1.7026,1.3208.6646.3604,1.3843.6313,2.1597.814.7754.1831,1.5396.2744,2.293.2744.897,0,1.7773-.0806,2.6416-.2412.8638-.1602,1.6333-.4204,2.3091-.7808.6758-.3599,1.2212-.8276,1.6367-1.4038.415-.5757.623-1.2793.623-2.1099,0-.7642-.1914-1.4009-.5732-1.9106-.3823-.5093-.8804-.9414-1.4956-1.2959Z" style="fill:#231f20;"/><path d="M407.543,469.6541c-.6147-.354-1.3042-.6533-2.0688-.897-.7637-.2437-1.5283-.4761-2.292-.6978-1.4844-.4321-2.5537-.8555-3.2065-1.271-.6538-.4155-.9805-.8442-.9805-1.2876,0-.7642.3628-1.3232,1.0884-1.6777.7251-.3545,1.708-.5039,2.9487-.4487.5869.0332,1.0991.1245,1.5366.2739s.8228.3213,1.1548.5151c.3325.1938.6284.3906.8887.5898s.5015.3652.7231.4985c.1992.0996.4067.1357.6226.1079.2163-.0278.4043-.1025.5649-.2241.1606-.1221.2744-.2852.3408-.4902s.0552-.4238-.0332-.6562c-.2656-.5093-.6206-.9526-1.0635-1.3291s-.9385-.6836-1.4868-.9224c-.5483-.2378-1.1382-.415-1.769-.5312-.6313-.1167-1.2739-.1748-1.9277-.1748-1.0742,0-1.9932.1221-2.7578.3657-.7642.2437-1.3931.5596-1.8853.9468-.4932.3882-.8618.8311-1.105,1.3291-.2441.4985-.3823.9971-.415,1.4956-.0449.6309.0718,1.1821.3486,1.6528.2769.4712.6587.8833,1.1465,1.2378.4868.3545,1.0464.6646,1.6777.9302.6313.2661,1.2822.5068,1.9521.7227.6699.2163,1.3291.4238,1.9771.623.6479.1997,1.2266.4102,1.7358.6313.5098.2217.9194.4683,1.2295.7393.3101.2715.4653.5898.4653.9556,0,.4761-.1274.875-.3818,1.1958-.2554.3218-.5986.5791-1.0303.7729-.4321.1938-.9307.3267-1.4951.3984-.5649.0723-1.1631.1025-1.7944.0913-.853-.0439-1.5864-.2075-2.2017-.4897-.6143-.2827-1.1406-.5923-1.5781-.9307-.4375-.3374-.7944-.6616-1.0713-.9717s-.5044-.5093-.6812-.5981c-.1885-.1216-.374-.1743-.5566-.1577s-.3408.0776-.4736.1826c-.1328.1055-.2354.249-.3071.4321-.0723.1826-.0913.3794-.0586.5898.144.6865.4517,1.29.9224,1.8105.4707.521,1.0386.9609,1.7031,1.3208.6646.3604,1.3843.6313,2.1597.814.7749.1831,1.5391.2744,2.2925.2744.8975,0,1.7778-.0806,2.6416-.2412.8643-.1602,1.6338-.4204,2.3096-.7808.6753-.3599,1.2212-.8276,1.6362-1.4038.4155-.5757.623-1.2793.623-2.1099,0-.7642-.1909-1.4009-.5732-1.9106-.3823-.5093-.8804-.9414-1.4951-1.2959Z" style="fill:#231f20;"/><path d="M430.7856,463.5403c-.7368-.7417-1.5977-1.3262-2.5835-1.7529-.9858-.4263-2.0381-.6392-3.1567-.6392s-2.168.2129-3.1479.6392c-.9805.4268-1.8418,1.0112-2.5835,1.7529-.7422.7422-1.3267,1.606-1.7529,2.5918-.4268.9858-.6396,2.0327-.6396,3.1401,0,1.1187.2129,2.1709.6396,3.1562.4263.9863,1.0107,1.8472,1.7529,2.5835.7417.7368,1.603,1.3184,2.5835,1.7446.98.4263,2.0288.6396,3.1479.6396s2.1709-.2134,3.1567-.6396,1.8467-1.0078,2.5835-1.7446c.7363-.7363,1.3179-1.5972,1.7441-2.5835.4263-.9854.6396-2.0376.6396-3.1562,0-1.1074-.2134-2.1543-.6396-3.1401s-1.0078-1.8496-1.7441-2.5918ZM430.0708,471.4568c-.2822.6812-.667,1.2764-1.1543,1.7861-.4878.5093-1.0635.9111-1.728,1.2041-.6646.2939-1.3789.4404-2.1431.4404s-1.4785-.1465-2.1431-.4404c-.6646-.293-1.2407-.6948-1.728-1.2041-.4873-.5098-.8721-1.105-1.1543-1.7861-.2827-.6812-.4238-1.4092-.4238-2.1846,0-.7646.1411-1.4873.4238-2.1685.2822-.6812.667-1.2764,1.1543-1.7856s1.0635-.9111,1.728-1.2046,1.3789-.4404,2.1431-.4404,1.4785.147,2.1431.4404,1.2402.6953,1.728,1.2046c.4873.5093.8721,1.1045,1.1543,1.7856.2827.6812.4238,1.4038.4238,2.1685,0,.7754-.1411,1.5034-.4238,2.1846Z" style="fill:#231f20;"/><path d="M455.5532,463.5569c-.6792-.731-1.4834-1.3096-2.4136-1.7358-.9307-.4268-1.9551-.6396-3.0737-.6396-.7534,0-1.4761.1108-2.168.332-.6924.2217-1.332.5068-1.9189.8555-.5874.3491-1.1074.7451-1.562,1.188-.3076.3003-.5562.5972-.7773.8921l-.1528-1.3408c-.0332-.376-.0942-.6919-.1826-.9468-.0889-.2544-.1968-.457-.3242-.6064-.127-.1494-.2632-.2544-.4072-.3154s-.2935-.0913-.4482-.0913c-.2217,0-.3936.0605-.5151.1826-.1221.1221-.1826.2935-.1826.5146v14.2383c0,.3652.1216.6758.3657.9302.2432.2549.5586.3823.9468.3823.354,0,.6616-.1274.9224-.3823.2598-.2544.3901-.5649.3901-.9302v-6.7285c0-.7422.1602-1.4565.4819-2.1431.3208-.687.7471-1.2905,1.2788-1.811s1.1436-.936,1.8359-1.2461,1.4146-.4653,2.168-.4653c.7646,0,1.4678.147,2.1104.4404.6421.2935,1.1963.6953,1.6611,1.2046.4653.5093.8276,1.1045,1.0884,1.7861.2598.6807.3901,1.4092.3901,2.1846v6.7617c0,.3765.1255.6924.3765.9468.2505.2549.5654.3823.9443.3823.2012,0,.3823-.0415.5435-.1245.1616-.0835.2979-.1885.4097-.3159.1118-.127.1982-.2686.2593-.4238.061-.1548.0918-.3096.0918-.4648v-6.7949c0-1.1074-.187-2.1543-.5601-3.1401s-.8994-1.8442-1.5781-2.5752Z" style="fill:#231f20;"/><path d="M242.1865,30.1999c-45.8271,12.1683-91.6554,24.3366-137.4826,36.505-11.501,3.0538-20.9726,11.7353-24.0632,23.2264-1.0383,3.8603-1.3801,7.8892-.9361,11.916.9296,8.4303,6.5505,16.1625,11.2688,21.2705,3.5541,3.8477,8.1796,6.5714,13.2342,7.9452,51.467,13.9881,99.5284,24.5693,151.2993,38.8612,5.973,1.6489,12.3198,1.452,18.1588-.6222,42.4037-15.0634,84.8084-30.1279,127.2119-45.1911,2.3557-2.3845,2.74-5.985,1.0649-8.5221-1.3383-2.0262-3.8207-3.1184-6.3808-2.8421-40.0964,13.189-80.1929,26.3765-120.2893,39.5654-2.7025.3209-7.9004.5008-12.4507-2.5299-9.0632-6.0368-9.633-20.8678-4.7935-29.7194,4.5661-8.3494,13.9042-11.3024,17.5766-12.4637,24.3834-7.7105,68.0861-21.5441,124.6339-38.6689,2.1025-1.0692,3.3645-3.2638,3.1961-5.5389-.2317-3.14-3.0551-4.6165-3.1961-4.687-50.414-9.5824-100.8266-19.1662-151.2405-28.7487-2.2602-.4296-4.588-.3461-6.8116.2443Z" style="fill:#f25a29;"/><path d="M401.944,290.7163c1.6808,2.5356,1.2966,6.1304-1.0606,8.5178-42.4105,15.0597-84.8195,30.1209-127.2299,45.1806-5.8354,2.0924-12.1715,2.2982-18.1551.6476-51.7528-14.2942-99.8216-24.8741-151.2794-38.8732-5.0684-1.3844-9.6964-4.0956-13.2321-7.9565-4.746-5.0986-10.3454-12.8206-11.288-21.2506-.4418-4.0366-.0892-8.0745.9426-11.9355,3.0954-11.4937,12.5558-20.1583,24.0495-23.2235l1.9338-.5167c7.1342-1.9061,14.6642-1.7366,21.7055.4883l90.6521,28.6454c4.51,1.4448,9.1956,2.1514,13.9416,2.1514,4.5086,0,8.9884-.649,13.3199-1.9456,29.7669-8.8416,59.0028-16.7391,87.2961-24.3733,15.9061-4.2937,32.1697-8.684,48.6409-13.2767,3.6281-1.0116,7.4545-1.1809,11.1543-.4749,2.2975.4384,4.5938.8768,6.8993,1.3153.1482.059,2.9774,1.5326,3.2134,4.6856.1468,2.2694-1.121,4.4798-3.2134,5.5404-56.5564,17.1233-100.2332,30.9455-124.6367,38.6675-3.6538,1.1498-12.9961,4.097-17.5651,12.4666-4.8324,8.8416-4.2726,23.6667,4.7748,29.7079,4.569,3.035,9.7554,2.8594,12.4666,2.5342,40.0821-13.1731,80.1929-26.3765,120.275-39.551,2.5644-.295,5.0698.7958,6.3952,2.8292Z" style="fill:#27aae2;"/><path d="M437.693,179.9032c-.7944,9.2244-6.837,17.7997-11.9945,23.5171-3.861,4.3028-8.9596,7.3982-14.5589,9.0488-57.2054,16.7996-110.7254,29.7669-168.2546,46.8902-6.6312,1.9744-13.7344,1.9442-20.3368-.1482-47.9206-15.149-95.8124-30.2965-143.733-45.4454-2.6824-2.5342-3.2422-6.4542-1.4448-9.2834,1.4448-2.2406,4.215-3.507,7.073-3.2724,45.2684,13.1746,90.5383,26.3491,135.8067,39.5223,3.035.2648,8.8718.3252,13.8524-3.1242,9.9899-6.837,10.1972-23.0177,4.5086-32.5371-5.3346-8.9581-15.8858-11.9053-20.0403-13.0551-27.4975-7.663-76.8341-21.4563-140.6405-38.4315-2.3874-1.0908-3.861-3.448-3.743-5.9246.177-3.448,3.3012-5.1274,3.448-5.2166,1.316-.2828,2.634-.5637,3.9528-.8438,6.4484-1.3694,13.0983-.9435,19.4503.8198.0289.008.0577.016.0866.024,24.7561,6.7204,49.0704,12.7616,72.5889,18.5969,25.4641,6.3074,51.8118,12.8508,78.6603,20.2475,3.6552,1.0016,7.4572,1.5326,11.2592,1.5326,4.7734,0,9.4891-.8246,13.9689-2.4162l102.5935-36.4559c9.1022-3.2344,18.9381-3.794,28.3515-1.6263.0486.0112.0972.0224.1459.0336,12.9673,2.976,23.8135,12.1428,27.6155,24.5791,1.2678,4.1848,1.7686,8.5768,1.3844,12.9688Z" style="fill:#2bb673;"/></svg>