<?xml version="1.0" encoding="UTF-8"?><svg id="Layer_1" xmlns="http://www.w3.org/2000/svg" width="1000" height="367.0852" viewBox="0 0 1000 367.0852"><path d="M373.9964,217.7855c-6.9892,0-13.5507-1.3361-19.6822-4.0084-6.1333-2.6723-11.5112-6.2857-16.1364-10.8433-4.6252-4.5561-8.2737-9.9183-10.946-16.0851-2.6723-6.1668-4.0086-12.7447-4.0086-19.7337,0-7.4002,1.3702-14.1996,4.1114-20.4018,2.7395-6.2005,6.475-11.545,11.2029-16.0337,4.728-4.487,10.2087-7.9992,16.4447-10.5349,6.2343-2.5342,12.8476-3.8029,19.8364-3.8029s13.5155,1.2334,19.5799,3.7001c6.0639,2.4666,11.3571,5.8937,15.8791,10.278,4.5225,4.3858,8.0845,9.5939,10.6891,15.6225,2.6033,6.0303,3.9059,12.5744,3.9059,19.6309,0,3.427-.8915,5.7219-2.6723,6.8862-1.7825,1.1659-4.8307,1.7472-9.1477,1.7472h-64.9568c.2732,3.1525,1.1466,6.1507,2.6209,8.9933,1.4729,2.8441,3.3741,5.3445,5.7047,7.5029,2.3284,2.1584,5.0007,3.8895,8.0164,5.1903,3.0144,1.3024,6.2343,1.9528,9.6615,1.9528,3.2889,0,6.475-.5653,9.5587-1.6958,3.0833-1.1306,5.8584-2.7575,8.3251-4.8821,1.4387-.8222,3.1505-1.2671,5.139-1.336,1.9863-.0675,3.9054.2409,5.7556.925,1.8497.6857,3.4254,1.7987,4.7275,3.3403,1.3008,1.5417,1.9529,3.4785,1.9529,5.807,0,2.6723-1.097,5.1053-3.2889,7.2974-2.1936,2.1937-5.0025,4.0598-8.4279,5.6015-3.4272,1.5418-7.2637,2.7413-11.5112,3.5974-4.2493.8559-8.3607,1.2848-12.3338,1.2848ZM374.8185,136.0755c-3.3578,0-6.5777.583-9.661,1.7473-3.0833,1.1659-5.825,2.775-8.2224,4.8306-2.3996,2.0556-4.4034,4.471-6.0125,7.246-1.6108,2.775-2.6209,5.807-3.0324,9.096h52.5207c-.2749-3.289-1.1484-6.3209-2.6209-9.096-1.4743-2.775-3.3582-5.1904-5.6528-7.246-2.2968-2.0556-4.9335-3.6648-7.9141-4.8306-2.9806-1.1643-6.1157-1.7473-9.4046-1.7473Z" style="fill:#231f20;"/><path d="M518.6078,97.7388c0,1.7825-.3263,3.3917-.9767,4.8306-.6517,1.4389-1.5414,2.7076-2.6723,3.8029-1.1304,1.0968-2.4668,1.9367-4.0082,2.518-1.5419.583-3.2041.8736-4.9849.8736h-30.2172l-.3083,95.8936c0,1.7135-.2925,3.3065-.8735,4.7793-.5832,1.4743-1.3877,2.759-2.4154,3.8542-1.0281,1.0969-2.2788,1.9528-3.7517,2.5695-1.4743.6167-3.0671.9251-4.7794.9251-1.7825,0-3.4092-.3084-4.8817-.9251-1.4743-.6167-2.7237-1.4726-3.7517-2.5695-1.0276-1.0952-1.8339-2.3799-2.4154-3.8542-.5828-1.4727-.8735-3.0658-.8735-4.7793l-.2055-95.8936h-30.6282c-1.7825,0-3.4272-.2906-4.9335-.8736-1.5081-.5813-2.8106-1.4036-3.9059-2.4666-1.0966-1.0616-1.9701-2.3286-2.6205-3.8029-.6522-1.4726-.9767-3.0995-.9767-4.882,0-1.6445.3083-3.2022.9253-4.6765.6166-1.4726,1.4725-2.7574,2.5691-3.8543,1.0953-1.0953,2.4154-1.9689,3.9573-2.6209,1.5414-.6504,3.2023-.9764,4.9849-.9764h84.9987c1.7118,0,3.3565.2923,4.9335.8736,1.5753.583,2.9292,1.4052,4.0596,2.4668,1.1308,1.0631,2.0381,2.3479,2.7237,3.8543.6842,1.508,1.0281,3.1524,1.0281,4.9334Z" style="fill:#231f20;"/><path d="M545.844,217.7855c-6.9892,0-13.5507-1.3361-19.6822-4.0084-6.1333-2.6723-11.5112-6.2857-16.1364-10.8433-4.6252-4.5561-8.2737-9.9183-10.946-16.0851-2.6723-6.1668-4.0086-12.7447-4.0086-19.7337,0-7.4002,1.3702-14.1996,4.1114-20.4018,2.7395-6.2005,6.475-11.545,11.2029-16.0337,4.728-4.487,10.2087-7.9992,16.4447-10.5349,6.2343-2.5342,12.8476-3.8029,19.8364-3.8029s13.5155,1.2334,19.5799,3.7001c6.0639,2.4666,11.3571,5.8937,15.8791,10.278,4.5225,4.3858,8.0845,9.5939,10.6891,15.6225,2.6033,6.0303,3.9059,12.5744,3.9059,19.6309,0,3.427-.8915,5.7219-2.6723,6.8862-1.7825,1.1659-4.8307,1.7472-9.1477,1.7472h-64.9568c.2732,3.1525,1.1466,6.1507,2.6209,8.9933,1.4729,2.8441,3.3741,5.3445,5.7047,7.5029,2.3284,2.1584,5.0007,3.8895,8.0164,5.1903,3.0144,1.3024,6.2343,1.9528,9.6615,1.9528,3.2889,0,6.475-.5653,9.5587-1.6958,3.0833-1.1306,5.8584-2.7575,8.3251-4.8821,1.4387-.8222,3.1505-1.2671,5.139-1.336,1.9863-.0675,3.9054.2409,5.7556.925,1.8497.6857,3.4254,1.7987,4.7275,3.3403,1.3008,1.5417,1.9529,3.4785,1.9529,5.807,0,2.6723-1.097,5.1053-3.2889,7.2974-2.1936,2.1937-5.0025,4.0598-8.4279,5.6015-3.4272,1.5418-7.2637,2.7413-11.5112,3.5974-4.2493.8559-8.3607,1.2848-12.3338,1.2848ZM546.6661,136.0755c-3.3578,0-6.5777.583-9.661,1.7473-3.0833,1.1659-5.825,2.775-8.2224,4.8306-2.3996,2.0556-4.4034,4.471-6.0125,7.246-1.6108,2.775-2.6209,5.807-3.0324,9.096h52.5207c-.2749-3.289-1.1484-6.3209-2.6209-9.096-1.4743-2.775-3.3582-5.1904-5.6528-7.246-2.2968-2.0556-4.9335-3.6648-7.9141-4.8306-2.9806-1.1643-6.1157-1.7473-9.4046-1.7473Z" style="fill:#231f20;"/><path d="M699.8082,167.115c0,6.989-1.0118,13.5669-3.0324,19.7337-2.0219,6.1668-4.9511,11.5467-8.7876,16.1364-3.8382,4.5913-8.5144,8.2224-14.0294,10.8946-5.5163,2.6723-11.7681,4.0084-18.7573,4.0084s-13.5507-1.3361-19.6822-4.0084c-6.1333-2.6723-11.5112-6.3034-16.1364-10.8946-4.6252-4.5898-8.2737-9.9697-10.946-16.1364-2.6723-6.1668-4.0086-12.7447-4.0086-19.7337s1.3364-13.5492,4.0086-19.6823c2.6723-6.1314,6.3208-11.4937,10.946-16.0851,4.6252-4.5898,10.0032-8.2224,16.1364-10.8946,6.1315-2.6723,12.6934-4.0084,19.6822-4.0084s13.2411,1.3361,18.7573,4.0084c5.515,2.6723,10.1911,6.3049,14.0294,10.8946,3.8365,4.5914,6.7657,9.9536,8.7876,16.0851,2.0206,6.1331,3.0324,12.6933,3.0324,19.6823ZM681.5132,167.115c0-3.7001-.686-7.2107-2.0557-10.535-1.3715-3.3227-3.2375-6.2182-5.6015-8.6848-2.364-2.4668-5.139-4.4196-8.3251-5.8585s-6.6295-2.1584-10.3294-2.1584-7.1609.7195-10.3808,2.1584c-3.2212,1.4389-6.0125,3.3917-8.3765,5.8585-2.364,2.4666-4.2137,5.3621-5.5501,8.6848-1.3359,3.3243-2.0043,6.8348-2.0043,10.535,0,3.7691.6684,7.3151,2.0043,10.6377,1.3364,3.3242,3.1861,6.2182,5.5501,8.6848,2.364,2.4668,5.1553,4.4196,8.3765,5.8585,3.2199,1.4389,6.6809,2.1584,10.3808,2.1584s7.1434-.7195,10.3294-2.1584,5.9611-3.3917,8.3251-5.8585c2.364-2.4666,4.23-5.3606,5.6015-8.6848,1.3697-3.3227,2.0557-6.8687,2.0557-10.6377ZM705.9748,170.3013c0,1.7135-.3083,3.3065-.9253,4.7793-.6166,1.4743-1.4743,2.7589-2.5695,3.8542-1.0966,1.0969-2.3816,1.9528-3.8541,2.5695-1.4743.6167-3.0671.925-4.7794.925-1.6442,0-3.2037-.3083-4.6762-.925-1.4743-.6167-2.7592-1.4726-3.8545-2.5695-1.0966-1.0953-1.9705-2.3799-2.6209-3.8542-.6517-1.4727-.9762-3.0658-.9762-4.7793v-26.9283l2.5695-1.4389,4.4193-13.5669c.8225-4.3167,2.1747-7.3825,4.06-9.1988,1.8836-1.8147,4.0934-2.7237,6.6291-2.7237,4.3846,0,6.5782,2.1937,6.5782,6.5779v47.2787ZM705.9748,210.0769c0,2.5358-.6522,4.471-1.9529,5.8071-1.3025,1.3361-3.1523,2.0042-5.5501,2.0042-2.5357,0-4.609-.7371-6.218-2.2098-1.6108-1.4726-2.793-3.4078-3.5462-5.807l-4.4193-17.5753-2.5695-1.3361v-23.6394c0-1.7119.3245-3.289.9762-4.7279.6504-1.4389,1.5243-2.706,2.6209-3.8028,1.0953-1.0953,2.3802-1.9528,3.8545-2.5695,1.4725-.6167,3.032-.925,4.6762-.925,1.7123,0,3.3051.3083,4.7794.925,1.4725.6167,2.7575,1.4743,3.8541,2.5695,1.0953,1.0968,1.9529,2.3639,2.5695,3.8028.617,1.4389.9253,3.0159.9253,4.7279v42.7564Z" style="fill:#231f20;"/><path d="M806.4934,130.4227c2.6033,2.8104,3.9059,5.6882,3.9059,8.6335,0,1.6444-.3439,3.2038-1.0281,4.6764-.6855,1.4743-1.6104,2.7076-2.775,3.7001-1.166.994-2.5357,1.7135-4.111,2.1584-1.577.4465-3.2217.4979-4.9335.1541-3.4944-1.7118-7.0243-3.4078-10.5864-5.0875-3.5633-1.6782-7.4003-2.8939-11.5112-3.6487-3.9059-.4785-7.7437-.2392-11.5112.7196-3.7693.9603-7.1271,2.5694-10.0725,4.8306-2.9468,2.2611-5.3107,5.1229-7.092,8.582-1.7825,3.4608-2.6723,7.4515-2.6723,11.9739,0,4.3858.8384,8.3091,2.5181,11.7682,1.6785,3.4608,3.9573,6.3386,6.8351,8.6335,2.8778,2.2965,6.2005,3.957,9.9693,4.9848,3.7675,1.0279,7.7762,1.2687,12.0255.7195,3.2889-.342,6.4912-1.1642,9.6097-2.4666,3.1171-1.3008,5.8746-3.0481,8.2737-5.2418,1.5757-.8222,3.3407-1.3361,5.2932-1.5417,1.9529-.2056,3.8189.0691,5.6015.8222,1.9178.7548,3.4593,2.0396,4.6252,3.8543,1.1642,1.8163,1.7474,3.9232,1.7474,6.3209,0,2.7413-1.0632,5.4827-3.1861,8.2224-2.1246,2.7413-5.0205,5.1904-8.6852,7.3488-3.6661,2.1584-7.9492,3.9232-12.8471,5.2932-4.8997,1.3698-10.0901,2.0556-15.5712,2.0556-6.9892,0-13.5507-1.3361-19.6822-4.0084-6.1333-2.6723-11.4954-6.3034-16.0851-10.8946-4.5914-4.5898-8.2224-9.9697-10.8946-16.1364-2.6723-6.1668-4.0086-12.7447-4.0086-19.7337s1.3364-13.5492,4.0086-19.6823c2.6723-6.1314,6.3032-11.4937,10.8946-16.0851,4.5896-4.5898,9.9518-8.2224,16.0851-10.8946,6.1315-2.6723,12.693-4.0084,19.6822-4.0084,3.4254,0,6.8509.3084,10.2781.9251,3.4254.6167,6.7319,1.5256,9.918,2.7237,3.1865,1.1996,6.1491,2.6561,8.8908,4.3681,2.7395,1.7136,5.1035,3.7001,7.0915,5.9612Z" style="fill:#231f20;"/><path d="M823.3492,97.0193c0-1.6445.3083-3.2022.9253-4.6765.6166-1.4726,1.4725-2.7574,2.5695-3.8543,1.0948-1.0953,2.3798-1.9528,3.8541-2.5695,1.4725-.6167,3.0658-.925,4.7794-.925,1.6442,0,3.2019.3083,4.6762.925,1.4729.6167,2.7575,1.4743,3.8545,2.5695,1.0953,1.0969,1.9687,2.3817,2.6209,3.8543.6504,1.4743.9762,3.032.9762,4.6765v108.6382c0,1.7135-.3259,3.3065-.9762,4.7793-.6522,1.4743-1.5256,2.759-2.6209,3.8542-1.097,1.0969-2.3816,1.9528-3.8545,2.5695-1.4743.6167-3.032.9251-4.6762.9251-1.7136,0-3.3069-.3084-4.7794-.9251-1.4743-.6167-2.7592-1.4726-3.8541-2.5695-1.097-1.0952-1.9529-2.3799-2.5695-3.8542-.617-1.4727-.9253-3.0658-.9253-4.7793v-108.6382ZM900.7425,192.7072v-25.9006c0-3.7-.6346-7.2105-1.9016-10.5349-1.2687-3.3227-3.032-6.2182-5.2932-8.6849-2.2612-2.4666-4.9335-4.4195-8.0168-5.8584-3.0833-1.439-6.475-2.1585-10.1753-2.1585-3.7689,0-7.3326.8399-10.6891,2.5181-3.3578,1.6798-6.3046,3.9057-8.8389,6.6807-2.5357,2.775-4.54,5.9099-6.0125,9.4044-1.4743,3.4945-2.2098,7.058-2.2098,10.6891l-.9249-32.5812c.6842-2.0557,2.0043-4.2654,3.9568-6.6293,1.9529-2.364,4.3683-4.5384,7.2461-6.5266,2.8778-1.9865,6.0977-3.6486,9.661-4.9848,3.562-1.3361,7.3651-2.0042,11.4089-2.0042,6.8509,0,13.1203,1.3361,18.8087,4.0084,5.6862,2.6723,10.5345,6.2872,14.5432,10.8433,4.0082,4.5576,7.1253,9.9021,9.3528,16.0336,2.2261,6.1331,3.3407,12.6933,3.3407,19.6823v29.6006l-24.256-3.5973ZM924.9986,190.035v15.4169c0,1.577-.3083,3.1188-.9253,4.6251-.6166,1.508-1.4562,2.8264-2.5181,3.957-1.0628,1.1306-2.3477,2.0396-3.8541,2.7237-1.5081.6841-3.1189,1.0279-4.8307,1.0279-2.0557,0-3.8382-.3951-5.3446-1.182-1.5081-.787-2.7588-1.8147-3.7513-3.0834-.9943-1.2671-1.7474-2.7237-2.2612-4.3681-.5138-1.6445-.7707-3.3564-.7707-5.139v-14.8003l24.256.8223Z" style="fill:#231f20;"/><path d="M348.494,277.0636c0,.6224-.2253,1.1014-.6754,1.4368-.4506.3357-.9701.5035-1.5595.5035h-17.2989c-.8735,0-1.5164-.2291-1.9283-.6882-.4119-.4589-.6179-1.1059-.6179-1.9417v-26.3988c-.0162-.2295-.0575-.4712-.1225-.7253-.0659-.2541-.0984-.4955-.0984-.7249,0-.2456.0821-.4463.2472-.6021.1647-.1558.4936-.2337.9881-.2337h18.9291c.6877,0,1.2033.1981,1.5472.5933.3439.3957.5156.8281.5156,1.2978s-.1678.9027-.5033,1.2979c-.336.3957-.8392.5933-1.5107.5933h-16.1114v10.0452h12.9433c.2947,0,.5731.0576.8348.1719.2617.1147.487.2702.6754.4667.1884.1964.3193.434.393.7122.0738.2786.0694.5814-.0123.9087-.0821.426-.2907.7656-.6262,1.0193-.3355.2541-.7409.3806-1.2156.3806h-12.9925v9.9471h15.8905c.3109,0,.6056.0369.884.1106s.5239.1926.7369.356c.2126.1639.3808.3646.5037.6018.1225.2376.184.5281.184.8719Z" style="fill:#231f20;"/><path d="M360.0373,249.6048c0-.5403.1801-.9985.5406-1.3753.3601-.3765.8265-.565,1.4-.565.5235,0,.978.1885,1.3631.565.3843.3768.5771.8351.5771,1.3753v27.4587c0,.5403-.1928.9989-.5771,1.3753-.3851.3769-.8397.565-1.3631.565-.5735,0-1.0399-.1881-1.4-.565-.3605-.3765-.5406-.8351-.5406-1.3753v-27.4587Z" style="fill:#231f20;"/><path d="M388.1105,279.0039c-1.6543,0-3.2054-.3151-4.6542-.9456-1.4492-.6302-2.7228-1.4859-3.8194-2.5666-1.097-1.0807-1.9608-2.3455-2.591-3.7947-.6306-1.449-.9455-3.0002-.9455-4.6542,0-1.801.3316-3.4423.9947-4.9244.6631-1.4817,1.5551-2.7508,2.6771-3.8068,1.1212-1.0562,2.4272-1.8747,3.9173-2.4561,1.4896-.581,3.0614-.8718,4.7157-.8718,1.6534,0,3.1966.3031,4.6296.9087,1.4325.6059,2.6771,1.4367,3.7333,2.4929,1.0557,1.0561,1.8866,2.3048,2.4927,3.7455.6056,1.441.9086,2.9964.9086,4.6665,0,.2947-.0246.5403-.0733.7368-.0492.1965-.1476.3523-.2947.4666-.1476.1148-.3649.1965-.6513.2457-.2863.0491-.6671.0737-1.1418.0737h-17.9045c.0817,1.0153.3474,1.9691.798,2.8612.4501.8927,1.0355,1.6744,1.7562,2.3455.7202.6716,1.5472,1.2035,2.4804,1.5965.9337.3929,1.9319.5895,2.9964.5895.9986,0,1.9731-.1758,2.923-.5281.9495-.3519,1.7926-.8718,2.5296-1.5596.2455-.1635.5406-.2617.884-.2947.3439-.0327.6671.0122.9705.135.3026.1227.5648.3154.7857.5772.2213.2621.3316.5979.3316,1.007,0,.4912-.2578.9744-.7734,1.4491-.516.4751-1.1835.8964-2.0017,1.2648-.819.3685-1.7281.6674-2.7263.8965-.9991.229-1.9815.3439-2.9472.3439ZM388.4052,258.2501c-1.0645,0-2.0715.1885-3.021.565-.9499.3768-1.797.8964-2.5423,1.5596s-1.3592,1.4368-1.8418,2.321c-.4831.8842-.7821,1.8421-.8963,2.8736h16.136c-.0821-1.0316-.3399-1.9894-.7734-2.8736-.4343-.8841-.9991-1.6578-1.6947-2.321-.6965-.6631-1.5028-1.1828-2.4193-1.5596-.9174-.3765-1.8998-.565-2.9472-.565Z" style="fill:#231f20;"/><path d="M421.66,277.8986c-.1805.3603-.4299.6385-.7492.8351-.3193.1964-.6429.2862-.9701.2702-.4093.0652-.7861-.0085-1.13-.2211-.3439-.2126-.6139-.5073-.8102-.8841l-8.7682-20.1397c-.2292-.4912-.2661-.9862-.1107-1.4859.1555-.4992.4954-.8634,1.0193-1.093.4914-.229.9824-.2494,1.4738-.0614.4914.1884.8594.5281,1.1054,1.0193l7.0731,16.9713,7.1473-17.0205c.0984-.2456.2455-.4543.4422-.6262.1963-.1719.4089-.3028.6385-.3929.2288-.0898.4747-.1267.7369-.1106.2617.0165.5156.0901.7611.221.2459.0983.4545.2376.6262.4175.1722.1804.303.3849.393.6141.09.2295.1309.4709.123.7245-.0083.2541-.0615.5035-.1599.7491l-8.8416,20.2134Z" style="fill:#231f20;"/><path d="M462.6269,267.0428c0,1.654-.2661,3.2094-.798,4.6665-.5323,1.4576-1.2815,2.7305-2.2476,3.8191-.9661,1.0891-2.1242,1.9488-3.4751,2.5788-1.3509.6305-2.8532.9456-4.5071.9456s-3.205-.3151-4.6542-.9456c-1.4488-.6301-2.7223-1.4897-3.8189-2.5788-1.0975-1.0887-1.9613-2.3616-2.591-3.8191-.6306-1.4571-.9459-3.0125-.9459-4.6665s.3153-3.209.9459-4.6665c.6298-1.4571,1.4936-2.73,2.591-3.8191,1.0966-1.0888,2.3701-1.9483,3.8189-2.5788,1.4492-.6302,3.0003-.9456,4.6542-.9456s3.1562.3154,4.5071.9456c1.3509.6305,2.5089,1.4901,3.4751,2.5788.9661,1.0891,1.7154,2.362,2.2476,3.8191.5318,1.4575.798,3.0128.798,4.6665ZM459.6552,267.0428c0-1.1459-.2086-2.2227-.6262-3.2297s-.9868-1.887-1.707-2.6403c-.7207-.7529-1.5717-1.3466-2.5541-1.7806-.9824-.4337-2.0386-.6508-3.1685-.6508s-2.1857.2172-3.1681.6508c-.9824.434-1.8339,1.0276-2.5541,1.7806-.7211.7534-1.2898,1.6333-1.707,2.6403-.4176,1.007-.6262,2.0838-.6262,3.2297,0,1.1297.2086,2.1982.6262,3.2052.4172,1.0069.9859,1.8873,1.707,2.6402.7202.7533,1.5717,1.3509,2.5541,1.7929.9824.4421,2.0386.6631,3.1681.6631s2.1861-.221,3.1685-.6631c.9824-.442,1.8335-1.0396,2.5541-1.7929.7202-.7529,1.2894-1.6333,1.707-2.6402.4176-1.007.6262-2.0755.6262-3.2052ZM463.6093,268.1972c0,.5404-.1801.999-.5402,1.3754-.3605.3768-.8269.5649-1.4.5649-.5244,0-.9784-.1881-1.3631-.5649-.3847-.3765-.5771-.8351-.5771-1.3754v-6.9752l.3193-.6141.5156-2.6525c.0984-1.0968.3439-1.8543.7369-2.2719.393-.4175.8186-.6262,1.2771-.6262.6877,0,1.0316.3439,1.0316,1.0315v12.1084ZM463.6093,277.5548c0,.4751-.1225.8435-.3685,1.1053-.2455.2617-.5731.3929-.9824.3929-.4585,0-.8309-.135-1.1172-.4052-.2868-.2702-.4791-.6424-.5775-1.1175l-.5156-4.0524-.3193-.6141v-5.7472c0-.5403.1924-.9985.5771-1.3753.3847-.3765.8388-.565,1.3631-.565.5731,0,1.0395.1885,1.4.565.3601.3768.5402.8351.5402,1.3753v10.4383Z" style="fill:#231f20;"/><path d="M487.6542,255.7205c.5239,0,.9741.1804,1.3509.5403.3768.3603.5652.8189.5652,1.3754,0,.2621-.0492.5077-.1476.7368-.0984.2295-.2332.4298-.4053.6018-.1717.1719-.3768.307-.6139.4052-.2376.0983-.4875.1473-.7492.1473h-10.5609c-.5402,0-.9947-.1842-1.3631-.5526-.3685-.3685-.5525-.8143-.5525-1.3386,0-.5496.184-1.0021.5525-1.3578.3685-.3554.823-.5335,1.3631-.5335l10.5609-.0245ZM480.3597,249.6048c0-.5403.1801-.9985.5406-1.3753.3597-.3765.8265-.565,1.3996-.565.5406,0,.9986.1885,1.3754.565.3768.3768.5652.8351.5652,1.3753v27.4587c0,.5403-.1884.9989-.5652,1.3753-.3768.3769-.8348.565-1.3754.565-.5731,0-1.0399-.1881-1.3996-.565-.3605-.3765-.5406-.8351-.5406-1.3753v-27.4587Z" style="fill:#231f20;"/><path d="M510.2256,279.0039c-1.6543,0-3.2054-.3151-4.6542-.9456-1.4492-.6302-2.7228-1.4859-3.8194-2.5666-1.097-1.0807-1.9608-2.3455-2.591-3.7947-.6306-1.449-.9455-3.0002-.9455-4.6542,0-1.801.3316-3.4423.9947-4.9244.6631-1.4817,1.5551-2.7508,2.6771-3.8068,1.1212-1.0562,2.4272-1.8747,3.9173-2.4561,1.4896-.581,3.0614-.8718,4.7157-.8718,1.6534,0,3.1966.3031,4.6296.9087,1.4325.6059,2.6771,1.4367,3.7333,2.4929,1.0557,1.0561,1.8866,2.3048,2.4927,3.7455.6056,1.441.9086,2.9964.9086,4.6665,0,.2947-.0246.5403-.0733.7368-.0492.1965-.1476.3523-.2947.4666-.1476.1148-.3649.1965-.6513.2457-.2863.0491-.6671.0737-1.1418.0737h-17.9045c.0817,1.0153.3474,1.9691.798,2.8612.4501.8927,1.0355,1.6744,1.7562,2.3455.7202.6716,1.5472,1.2035,2.4804,1.5965.9337.3929,1.9319.5895,2.9964.5895.9986,0,1.9731-.1758,2.923-.5281.9495-.3519,1.7926-.8718,2.5296-1.5596.2455-.1635.5406-.2617.884-.2947.3439-.0327.6671.0122.9705.135.3026.1227.5648.3154.7857.5772.2213.2621.3316.5979.3316,1.007,0,.4912-.2578.9744-.7734,1.4491-.516.4751-1.1835.8964-2.0017,1.2648-.819.3685-1.7281.6674-2.7263.8965-.9991.229-1.9815.3439-2.9472.3439ZM510.5203,258.2501c-1.0645,0-2.0715.1885-3.021.565-.9499.3768-1.797.8964-2.5423,1.5596s-1.3592,1.4368-1.8418,2.321c-.4831.8842-.7821,1.8421-.8963,2.8736h16.136c-.0821-1.0316-.3399-1.9894-.7734-2.8736-.4343-.8841-.9991-1.6578-1.6947-2.321-.6965-.6631-1.5028-1.1828-2.4193-1.5596-.9174-.3765-1.8998-.565-2.9472-.565Z" style="fill:#231f20;"/><path d="M575.9,277.0636c0,.6224-.2253,1.1014-.6754,1.4368-.4506.3357-.9701.5035-1.5595.5035h-17.2989c-.8735,0-1.5164-.2291-1.9283-.6882-.4119-.4589-.6179-1.1059-.6179-1.9417v-26.3988c-.0162-.2295-.0575-.4712-.1225-.7253-.0659-.2541-.0984-.4955-.0984-.7249,0-.2456.0821-.4463.2472-.6021.1647-.1558.4936-.2337.9881-.2337h18.9291c.6877,0,1.2033.1981,1.5472.5933.3439.3957.5156.8281.5156,1.2978s-.1678.9027-.5033,1.2979c-.336.3957-.8392.5933-1.5107.5933h-16.1114v10.0452h12.9433c.2947,0,.5731.0576.8348.1719.2617.1147.487.2702.6754.4667.1884.1964.3193.434.393.7122.0738.2786.0694.5814-.0123.9087-.0821.426-.2907.7656-.6262,1.0193-.3355.2541-.7409.3806-1.2156.3806h-12.9925v9.9471h15.8905c.3109,0,.6056.0369.884.1106s.5239.1926.7369.356c.2126.1639.3808.3646.5037.6018.1225.2376.184.5281.184.8719Z" style="fill:#231f20;"/><path d="M597.98,277.8986c-.1805.3603-.4299.6385-.7492.8351-.3193.1964-.6429.2862-.9701.2702-.4093.0652-.7861-.0085-1.13-.2211-.3439-.2126-.6139-.5073-.8102-.8841l-8.7682-20.1397c-.2292-.4912-.2661-.9862-.1107-1.4859.1555-.4992.4954-.8634,1.0193-1.093.4914-.229.9824-.2494,1.4738-.0614.4914.1884.8594.5281,1.1054,1.0193l7.0731,16.9713,7.1473-17.0205c.0984-.2456.2455-.4543.4422-.6262.1963-.1719.4089-.3028.6385-.3929.2288-.0898.4747-.1267.7369-.1106.2617.0165.5156.0901.7611.221.2459.0983.4545.2376.6262.4175.1722.1804.303.3849.393.6141.09.2295.1309.4709.123.7245-.0083.2541-.0615.5035-.1599.7491l-8.8416,20.2134Z" style="fill:#231f20;"/><path d="M627.8459,279.0039c-1.6543,0-3.2054-.3151-4.6542-.9456-1.4492-.6302-2.7228-1.4859-3.8194-2.5666-1.097-1.0807-1.9608-2.3455-2.591-3.7947-.6306-1.449-.9455-3.0002-.9455-4.6542,0-1.801.3316-3.4423.9947-4.9244.6631-1.4817,1.5551-2.7508,2.6771-3.8068,1.1212-1.0562,2.4272-1.8747,3.9173-2.4561,1.4896-.581,3.0614-.8718,4.7157-.8718,1.6534,0,3.1966.3031,4.6296.9087,1.4325.6059,2.6771,1.4367,3.7333,2.4929,1.0557,1.0561,1.8866,2.3048,2.4927,3.7455.6056,1.441.9086,2.9964.9086,4.6665,0,.2947-.0246.5403-.0733.7368-.0492.1965-.1476.3523-.2947.4666-.1476.1148-.3649.1965-.6513.2457-.2863.0491-.6671.0737-1.1418.0737h-17.9045c.0817,1.0153.3474,1.9691.798,2.8612.4501.8927,1.0355,1.6744,1.7562,2.3455.7202.6716,1.5472,1.2035,2.4804,1.5965.9337.3929,1.9319.5895,2.9964.5895.9986,0,1.9731-.1758,2.923-.5281.9495-.3519,1.7926-.8718,2.5296-1.5596.2455-.1635.5406-.2617.884-.2947.3439-.0327.6671.0122.9705.135.3026.1227.5648.3154.7857.5772.2213.2621.3316.5979.3316,1.007,0,.4912-.2578.9744-.7734,1.4491-.516.4751-1.1835.8964-2.0017,1.2648-.819.3685-1.7281.6674-2.7263.8965-.9991.229-1.9815.3439-2.9472.3439ZM628.1405,258.2501c-1.0645,0-2.0715.1885-3.021.565-.9499.3768-1.797.8964-2.5423,1.5596s-1.3592,1.4368-1.8418,2.321c-.4831.8842-.7821,1.8421-.8963,2.8736h16.136c-.0821-1.0316-.3399-1.9894-.7734-2.8736-.4343-.8841-.9991-1.6578-1.6947-2.321-.6965-.6631-1.5028-1.1828-2.4193-1.5596-.9174-.3765-1.8998-.565-2.9472-.565Z" style="fill:#231f20;"/><path d="M652.087,256.0151c0-.3273.09-.581.2705-.7614.1796-.1799.4334-.2701.7611-.2701.2292,0,.4501.0452.6631.135.2126.0901.4137.2456.6021.4666.188.2211.3474.5201.4787.8965.1309.3768.2209.8435.2701,1.3999l.516,4.5192.3193.6139v14.0487c0,.5403-.1928.9989-.5771,1.3753-.3851.3769-.8397.565-1.3631.565-.5735,0-1.0399-.1881-1.4-.565-.3605-.3765-.5406-.8351-.5406-1.3753v-21.0484ZM655.01,260.2396c.2126-.393.5318-.8432.9578-1.3509.4255-.5073.9372-1.0028,1.5349-1.4859.5977-.4829,1.281-.9249,2.0509-1.3263.7694-.4011,1.6047-.6916,2.5054-.8719.4747-.0652,1.0597-.094,1.7558-.086.6961.0085,1.3631.0901,2.0017.2456.6385.1558,1.1827.3972,1.6332.7245.4501.3277.6754.7698.6754,1.3263,0,.3769-.1146.7-.3439.9702s-.4993.4628-.8102.5772c-.1805.0491-.3439.0737-.4914.0737-.1471,0-.307-.008-.4787-.0246-.1722-.016-.3768-.0368-.6139-.0614-.2376-.0246-.5283-.0449-.8722-.0614-.4752-.0326-.9622-.0449-1.4611-.0369-.4998.0085-1.0035.0944-1.5107.2579-.704.213-1.3715.5365-2.0017.9702-.6306.434-1.191.9498-1.6824,1.5473-.491.5979-.9007,1.2772-1.2279,2.0385-.3276.7614-.5489,1.5681-.6631,2.4192l-.9578-5.8453Z" style="fill:#231f20;"/><path d="M686.7173,277.4074c-.4914-1.1298-.9376-2.153-1.3386-3.0702-.4014-.9167-.8559-1.9563-1.3631-3.1191-.5077-1.1625-1.0237-2.3494-1.5472-3.5612-1.2446-2.8326-2.6613-6.0581-4.2493-9.6769-.2292-.573-.3109-1.1298-.2455-1.6701.0654-.5404.401-.9495,1.007-1.2281.5072-.229,1.0395-.2413,1.5963-.0368.5564.2049.9741.6673,1.2529,1.3876l6.926,17.0205c1.0641-2.6034,2.0219-4.9527,2.8734-7.0488.8511-2.0958,1.5801-3.8886,2.1861-5.3788.6056-1.4897,1.072-2.6483,1.3996-3.4753.3276-.8266.5077-1.281.5406-1.3631.0984-.2126.2292-.4132.393-.6018.1634-.188.3597-.3438.5894-.4666.2292-.1229.4826-.1965.7615-.221.278-.0246.581.0368.9086.1841.1801.0821.3562.2008.5279.3562.1722.1558.3109.3481.4176.5772.1063.2295.1634.4832.1722.7614.0079.2786-.0615.5814-.209.9087l-9.7994,22.694c-.3605.8512-.7334,1.6249-1.1177,2.321-.3851.6957-.8436,1.3018-1.3754,1.8175-.5323.5158-1.1787.9249-1.9402,1.2281-.7615.3028-1.707.4789-2.837.528-.5894.0161-1.1137-.127-1.5717-.4298-.4585-.3031-.6877-.7902-.6877-1.4613,0-.3603.094-.6385.2824-.8351.188-.1965.4378-.3562.7492-.4789.3109-.1229.6631-.2333,1.0562-.3316s.7896-.2295,1.191-.393c.401-.1638.7861-.3848,1.1545-.6631.3685-.2785.6912-.6631.9701-1.1543l1.3263-3.1191Z" style="fill:#231f20;"/><path d="M752.4413,276.9162c0,.6224-.1967,1.1051-.5898,1.449-.3926.3439-.8269.5158-1.3017.5158h-17.5114c-.7698-.0161-1.3921-.274-1.8669-.7737-.4747-.4992-.7119-1.1336-.7119-1.9034v-26.5499c0-.2127-.029-.4214-.0861-.6263-.0575-.2045-.0861-.4052-.0861-.6018,0-.2456.0984-.442.2947-.5895.1967-.1473.5977-.221,1.2037-.221.8511,0,1.4896.205,1.9156.6141.4255.4094.6385,1.1382.6385,2.1858v24.5852h16.1606c.213,0,.4339.0411.6631.1227.2292.0821.4383.205.6267.3685.188.1638.3439.3645.4664.6016.123.2376.1844.5119.1844.8229Z" style="fill:#231f20;"/><path d="M775.1845,279.0039c-1.6543,0-3.2054-.3151-4.6542-.9456-1.4492-.6302-2.7228-1.4859-3.8194-2.5666-1.097-1.0807-1.9608-2.3455-2.591-3.7947-.6306-1.449-.9455-3.0002-.9455-4.6542,0-1.801.3316-3.4423.9947-4.9244.6631-1.4817,1.5551-2.7508,2.6771-3.8068,1.1212-1.0562,2.4272-1.8747,3.9173-2.4561,1.4896-.581,3.0614-.8718,4.7157-.8718,1.6534,0,3.1966.3031,4.6296.9087,1.4325.6059,2.6771,1.4367,3.7333,2.4929,1.0557,1.0561,1.8866,2.3048,2.4927,3.7455.6056,1.441.9086,2.9964.9086,4.6665,0,.2947-.0246.5403-.0733.7368-.0492.1965-.1476.3523-.2947.4666-.1476.1148-.3649.1965-.6513.2457-.2863.0491-.6671.0737-1.1418.0737h-17.9045c.0817,1.0153.3474,1.9691.798,2.8612.4501.8927,1.0355,1.6744,1.7562,2.3455.7202.6716,1.5472,1.2035,2.4804,1.5965.9337.3929,1.9319.5895,2.9964.5895.9986,0,1.9731-.1758,2.923-.5281.9495-.3519,1.7926-.8718,2.5296-1.5596.2455-.1635.5406-.2617.884-.2947.3439-.0327.6671.0122.9705.135.3026.1227.5648.3154.7857.5772.2213.2621.3316.5979.3316,1.007,0,.4912-.2578.9744-.7734,1.4491-.516.4751-1.1835.8964-2.0017,1.2648-.819.3685-1.7281.6674-2.7263.8965-.9991.229-1.9815.3439-2.9472.3439ZM775.4791,258.2501c-1.0645,0-2.0715.1885-3.021.565-.9499.3768-1.797.8964-2.5423,1.5596s-1.3592,1.4368-1.8418,2.321c-.4831.8842-.7821,1.8421-.8963,2.8736h16.136c-.0821-1.0316-.3399-1.9894-.7734-2.8736-.4343-.8841-.9991-1.6578-1.6947-2.321-.6965-.6631-1.5028-1.1828-2.4193-1.5596-.9174-.3765-1.8998-.565-2.9472-.565Z" style="fill:#231f20;"/><path d="M808.5623,279.0039c-1.1137,0-2.2432-.1352-3.3894-.4053-1.1462-.2701-2.2103-.6711-3.1927-1.2034-.9824-.5319-1.8216-1.1828-2.5177-1.9526-.6961-.7694-1.1502-1.6617-1.3631-2.6771-.0487-.3108-.0206-.6016.0861-.8718.1063-.2702.2578-.4827.4545-.6386.1963-.1554.4299-.2456.7-.2701.2701-.0246.5441.0534.8225.2333.2617.1312.5977.426,1.007.8841.4093.4586.9372.9376,1.584,1.4368.6469.4997,1.4246.9579,2.3332,1.3754.9091.4175,1.9933.6593,3.2546.7245.9332.0165,1.8172-.0284,2.6525-.135.8348-.1064,1.5717-.3028,2.2103-.5895.6385-.2863,1.1458-.667,1.523-1.1421.3764-.4747.5648-1.0641.5648-1.7684,0-.5403-.2297-1.0107-.6877-1.4122-.4585-.401-1.0645-.7651-1.8177-1.0928-.7532-.3274-1.6086-.6386-2.5664-.9333-.9578-.2948-1.9323-.6018-2.9226-.921-.9907-.3193-1.9525-.6754-2.8857-1.0684-.9337-.393-1.7606-.8512-2.4808-1.3754-.7207-.5238-1.2854-1.1336-1.6947-1.8298-.4093-.6957-.5814-1.5105-.5156-2.4438.0487-.7368.2534-1.4736.6139-2.2104.3597-.7368.9042-1.3915,1.6332-1.9649.7281-.5729,1.6578-1.0396,2.7873-1.3999,1.13-.3599,2.4887-.5403,4.0771-.5403.9661,0,1.916.086,2.8493.2579.9332.1719,1.8049.434,2.6156.7859.8102.3523,1.5432.8066,2.198,1.3631.6548.5569,1.1791,1.2119,1.5722,1.9648.1309.3439.1471.6674.0487.9702-.0979.3031-.2661.5446-.5033.7245-.2376.1804-.516.2908-.8353.3316-.3193.0411-.6262-.0123-.9209-.1596-.3276-.1965-.6838-.4421-1.0685-.7368-.3847-.2948-.8225-.5853-1.314-.8719-.491-.2862-1.0601-.5403-1.707-.7614-.6469-.221-1.404-.356-2.2718-.4052-1.8339-.0817-3.2871.1393-4.3595.6631-1.0724.5242-1.6086,1.3509-1.6086,2.4806,0,.6551.4826,1.2895,1.4492,1.9035.9657.6139,2.5458,1.2403,4.7403,1.8788,1.1295.3277,2.2595.6716,3.389,1.0316,1.13.3603,2.1492.8025,3.0579,1.3263.9091.5242,1.6455,1.1628,2.2107,1.9157.5648.7533.8471,1.6946.8471,2.8244,0,1.228-.307,2.268-.9209,3.1192-.6139.8515-1.4207,1.5434-2.4193,2.0754-.9991.5323-2.1365.9172-3.414,1.1543-1.2771.2371-2.5787.3562-3.905.3562Z" style="fill:#231f20;"/><path d="M840.54,279.0039c-1.1137,0-2.2432-.1352-3.3894-.4053-1.1462-.2701-2.2103-.6711-3.1927-1.2034-.9824-.5319-1.8216-1.1828-2.5177-1.9526-.6961-.7694-1.1502-1.6617-1.3631-2.6771-.0487-.3108-.0206-.6016.0861-.8718.1063-.2702.2578-.4827.4545-.6386.1963-.1554.4299-.2456.7-.2701.2701-.0246.5441.0534.8225.2333.2617.1312.5977.426,1.007.8841.4093.4586.9372.9376,1.584,1.4368.6469.4997,1.4246.9579,2.3332,1.3754.9091.4175,1.9933.6593,3.2546.7245.9332.0165,1.8172-.0284,2.6525-.135.8348-.1064,1.5717-.3028,2.2103-.5895.6385-.2863,1.1458-.667,1.523-1.1421.3764-.4747.5648-1.0641.5648-1.7684,0-.5403-.2297-1.0107-.6877-1.4122-.4585-.401-1.0645-.7651-1.8177-1.0928-.7532-.3274-1.6086-.6386-2.5664-.9333-.9578-.2948-1.9323-.6018-2.9226-.921-.9907-.3193-1.9525-.6754-2.8857-1.0684-.9337-.393-1.7606-.8512-2.4808-1.3754-.7207-.5238-1.2854-1.1336-1.6947-1.8298-.4093-.6957-.5814-1.5105-.5156-2.4438.0487-.7368.2534-1.4736.6139-2.2104.3597-.7368.9042-1.3915,1.6332-1.9649.7281-.5729,1.6578-1.0396,2.7873-1.3999,1.13-.3599,2.4887-.5403,4.0771-.5403.9661,0,1.916.086,2.8493.2579s1.8049.434,2.6156.7859c.8102.3523,1.5432.8066,2.198,1.3631.6548.5569,1.1791,1.2119,1.5722,1.9648.1309.3439.1471.6674.0487.9702-.0979.3031-.2661.5446-.5033.7245-.2376.1804-.516.2908-.8353.3316-.3193.0411-.6262-.0123-.9209-.1596-.3276-.1965-.6838-.4421-1.0685-.7368-.3847-.2948-.8225-.5853-1.314-.8719-.491-.2862-1.0601-.5403-1.707-.7614-.6469-.221-1.404-.356-2.2718-.4052-1.8339-.0817-3.2871.1393-4.3595.6631-1.0724.5242-1.6086,1.3509-1.6086,2.4806,0,.6551.4826,1.2895,1.4492,1.9035.9657.6139,2.5458,1.2403,4.7403,1.8788,1.1295.3277,2.2595.6716,3.389,1.0316,1.13.3603,2.1492.8025,3.0579,1.3263.9091.5242,1.6455,1.1628,2.2107,1.9157.5648.7533.8471,1.6946.8471,2.8244,0,1.228-.307,2.268-.9209,3.1192-.6139.8515-1.4207,1.5434-2.4193,2.0754-.9991.5323-2.1365.9172-3.414,1.1543-1.2771.2371-2.5787.3562-3.905.3562Z" style="fill:#231f20;"/><path d="M862.0061,266.9938c0-1.6372.3149-3.1844.9455-4.642.6302-1.4571,1.494-2.7342,2.591-3.8314,1.0966-1.0968,2.3701-1.9606,3.8194-2.5911,1.4488-.6301,2.9999-.9455,4.6542-.9455,1.6534,0,3.2089.3154,4.6665.9455,1.4571.6305,2.7298,1.4943,3.8189,2.5911,1.0887,1.0972,1.9485,2.3743,2.5787,3.8314.6302,1.4576.9459,3.0048.9459,4.642,0,1.654-.3158,3.2094-.9459,4.6665-.6302,1.4575-1.4901,2.7304-2.5787,3.8191-1.0891,1.0891-2.3618,1.9487-3.8189,2.5788-1.4576.6305-3.0131.9456-4.6665.9456-1.6543,0-3.2054-.3151-4.6542-.9456-1.4492-.6302-2.7228-1.4897-3.8194-2.5788-1.097-1.0888-1.9608-2.3617-2.591-3.8191-.6306-1.4571-.9455-3.0125-.9455-4.6665ZM865.9603,266.9938c0,1.1462.2086,2.2227.6262,3.2297s.9864,1.8873,1.707,2.6402c.7202.7534,1.5717,1.347,2.5541,1.7807.9824.434,2.0386.6508,3.1685.6508s2.1857-.2168,3.1681-.6508c.9824-.4337,1.8335-1.0273,2.5541-1.7807.7207-.7529,1.2898-1.6332,1.707-2.6402.4176-1.007.6262-2.0835.6262-3.2297,0-1.1298-.2086-2.1982-.6262-3.2052-.4172-1.007-.9864-1.887-1.707-2.6402-.7207-.7529-1.5717-1.3467-2.5541-1.7807-.9824-.4337-2.0386-.6508-3.1681-.6508s-2.1861.2172-3.1685.6508c-.9824.434-1.8339,1.0277-2.5541,1.7807-.7207.7533-1.2894,1.6332-1.707,2.6402s-.6262,2.0754-.6262,3.2052Z" style="fill:#231f20;"/><path d="M898.2327,256.0151c0-.3273.09-.581.2705-.7614.1796-.1799.4334-.2701.7611-.2701.2292,0,.4501.0452.6631.135.2126.0901.4137.2456.6021.4666.188.2211.3474.5201.4787.8965.1309.3768.2209.8435.2701,1.3999l.516,4.5192.3193.6139v14.0487c0,.5403-.1928.9989-.5771,1.3753-.3851.3769-.8397.565-1.3631.565-.5735,0-1.0399-.1881-1.4-.565-.3605-.3765-.5406-.8351-.5406-1.3753v-21.0484ZM918.3971,267.0428c0-1.1459-.1928-2.2227-.5771-3.2297-.3851-1.007-.9214-1.887-1.6086-2.6403-.6877-.7529-1.5068-1.3466-2.4562-1.7806-.9499-.4337-1.9894-.6508-3.1193-.6508-1.1137,0-2.1817.2295-3.205.6876-1.0237.4586-1.9279,1.0726-2.714,1.8421-.7861.7698-1.4163,1.6621-1.891,2.6771-.4752,1.0154-.7123,2.0715-.7123,3.1683l-1.0562-6.6313c.393-.6386.9249-1.2852,1.5963-1.9403.6715-.6547,1.4409-1.2403,2.3087-1.7561s1.8133-.9372,2.837-1.2649c1.0228-.3273,2.0913-.4912,3.205-.4912,1.6539,0,3.1685.3154,4.544.9456,1.375.6305,2.5642,1.4859,3.5682,2.5666,1.0035,1.0807,1.7812,2.3497,2.3332,3.8068.5516,1.4576.8278,3.0048.8278,4.642v10.0452c0,.2295-.0452.4586-.1357.6877-.0905.2295-.2183.4383-.3834.6262-.1651.1885-.3667.3439-.6056.4667-.2385.1227-.5063.1842-.8032.1842-.5604,0-1.0259-.1881-1.3965-.565-.3706-.3765-.556-.8431-.556-1.3999v-9.9961Z" style="fill:#231f20;"/><path d="M172.4489,85.9513c-30.3369,8.0552-60.6745,16.1105-91.0114,24.1657-7.6135,2.0216-13.8835,7.7686-15.9295,15.3755-.6873,2.5554-.9136,5.2225-.6197,7.8882.6154,5.5807,4.3363,10.6993,7.4598,14.0808,2.3528,2.5471,5.4148,4.3502,8.7609,5.2596,34.0704,9.2599,65.8863,16.2645,100.1578,25.7256,3.9541,1.0916,8.1555.9612,12.0209-.4119,28.0706-9.9717,56.1419-19.9442,84.2123-29.9158,1.5595-1.5785,1.8138-3.962.7049-5.6415-.8859-1.3413-2.5292-2.0644-4.224-1.8815-26.5432,8.7309-53.0865,17.4608-79.6297,26.1917-1.789.2124-5.23.3315-8.2422-1.6747-5.9997-3.9963-6.3769-13.8141-3.1732-19.6738,3.0227-5.5272,9.2043-7.482,11.6355-8.2508,16.1414-5.1042,45.072-14.2619,82.5057-25.5982,1.3918-.7078,2.2273-2.1606,2.1158-3.6667-.1534-2.0786-2.0224-3.056-2.1158-3.1027-33.3733-6.3434-66.7457-12.6878-100.1189-19.0312-1.4962-.2844-3.0372-.2291-4.5092.1617Z" style="fill:#f25a29;"/><path d="M278.2059,258.4092c1.1127,1.6785.8583,4.0582-.7021,5.6386-28.0751,9.9693-56.1492,19.9396-84.2243,29.9089-3.8629,1.3851-8.0574,1.5214-12.0184.4287-34.2596-9.4625-66.0804-16.4663-100.1447-25.7335-3.3552-.9164-6.4188-2.7112-8.7595-5.2671-3.1418-3.3752-6.8485-8.487-7.4725-14.0675-.2925-2.6721-.0591-5.3452.624-7.9011,2.0491-7.6087,8.3117-13.3445,15.9204-15.3736l1.2801-.342c4.7227-1.2618,9.7075-1.1496,14.3687.3233l60.0103,18.9628c2.9856.9564,6.0873,1.4242,9.2291,1.4242,2.9846,0,5.9502-.4296,8.8176-1.288,19.7052-5.853,39.0589-11.081,57.7887-16.1348,10.5296-2.8423,21.2958-5.7487,32.1995-8.789,2.4018-.6697,4.9348-.7818,7.384-.3144,1.5209.2902,3.041.5805,4.5672.8707.0981.0391,1.971,1.0146,2.1272,3.1018.0972,1.5023-.7421,2.9655-2.1272,3.6676-37.4395,11.3354-66.3529,20.4854-82.5076,25.5973-2.4187.7612-8.6032,2.7121-11.6278,8.2527-3.1989,5.853-2.8284,15.667,3.1608,19.6662,3.0246,2.0091,6.4579,1.8929,8.2527,1.6776,26.5337-8.7204,53.0865-17.4608,79.6202-26.1822,1.6976-.1953,3.3561.5268,4.2335,1.8729Z" style="fill:#27aae2;"/><path d="M301.8712,185.0526c-.5259,6.1064-4.526,11.7831-7.9402,15.5679-2.5559,2.8484-5.9311,4.8975-9.6378,5.9902-37.8691,11.121-73.2985,19.7052-111.3819,31.0406-4.3897,1.307-9.0919,1.287-13.4626-.0981-31.7227-10.0284-63.4264-20.0558-95.1491-30.0842-1.7757-1.6776-2.1463-4.2726-.9564-6.1454.9564-1.4833,2.7903-2.3216,4.6822-2.1663,29.967,8.7214,59.935,17.4427,89.902,26.1631,2.0091.1753,5.873.2153,9.1701-2.0682,6.6132-4.526,6.7504-15.2374,2.9846-21.5391-3.5314-5.9301-10.5161-7.8811-13.2664-8.6423-18.2029-5.0728-50.863-14.2038-93.1019-25.441-1.5804-.7221-2.5559-2.2825-2.4778-3.922.1172-2.2825,2.1853-3.3942,2.2825-3.4533.8712-.1872,1.7436-.3732,2.6167-.5586,4.2688-.9065,8.6708-.6246,12.8758.5427.0191.0053.0382.0106.0573.0159,16.3882,4.4488,32.4839,8.448,48.0528,12.3109,16.8569,4.1754,34.2986,8.507,52.0719,13.4036,2.4197.663,4.9365,1.0146,7.4534,1.0146,3.1599,0,6.2817-.5459,9.2472-1.5995l67.9154-24.1333c6.0255-2.1411,12.5367-2.5115,18.7683-1.0766.0322.0074.0644.0148.0966.0222,8.5842,1.97,15.7642,8.0383,18.281,16.271.8393,2.7703,1.1708,5.6777.9164,8.5851Z" style="fill:#2bb673;"/></svg>