<?xml version="1.0" encoding="UTF-8"?><svg id="Layer_1" xmlns="http://www.w3.org/2000/svg" width="512" height="512" viewBox="0 0 512 512"><path d="M239.335,65.7186c-55.2871,14.6802-110.5757,29.3604-165.8629,44.0406-13.8751,3.6842-25.3019,14.1578-29.0306,28.021-1.2526,4.6571-1.665,9.5177-1.1293,14.3758,1.1215,10.1705,7.9027,19.4989,13.595,25.6614,4.2878,4.642,9.8681,7.9279,15.9661,9.5853,62.0913,16.8756,120.0738,29.6411,182.5318,46.8833,7.206,1.9893,14.863,1.7518,21.9073-.7506,51.157-18.1729,102.3153-36.3471,153.472-54.5198,2.842-2.8767,3.3056-7.2205,1.2847-10.2813-1.6146-2.4445-4.6094-3.7622-7.698-3.4288-48.3735,15.9115-96.747,31.8213-145.1204,47.7329-3.2604.3872-9.5313.6042-15.0209-3.0521-10.9341-7.283-11.6216-25.1755-5.783-35.8543,5.5087-10.073,16.7744-13.6355,21.205-15.0365,29.4168-9.3021,82.141-25.9914,150.3618-46.6513,2.5365-1.2899,4.059-3.9375,3.8559-6.6823-.2795-3.7882-3.6858-5.5695-3.8559-5.6545-60.8209-11.5605-121.6401-23.1227-182.4608-34.6833-2.7268-.5183-5.5351-.4176-8.2177.2947Z" style="fill:#f25a29;"/><path d="M432.0709,380.0129c2.0278,3.059,1.5642,7.3959-1.2795,10.2761-51.1652,18.1685-102.3286,36.3387-153.4937,54.5072-7.04,2.5243-14.6841,2.7726-21.9029.7813-62.436-17.2449-120.4276-30.0088-182.5078-46.8978-6.1146-1.6701-11.698-4.941-15.9636-9.599-5.7257-6.1511-12.481-15.4671-13.6181-25.6373-.533-4.8698-.1076-9.7414,1.1372-14.3994,3.7344-13.8664,15.1476-24.3196,29.014-28.0175l2.333-.6233c8.6069-2.2995,17.6913-2.0951,26.1861.5892l109.3652,34.5586c5.441,1.7431,11.0938,2.5955,16.8195,2.5955,5.4393,0,10.8438-.783,16.0695-2.3472,35.9116-10.6667,71.1826-20.1945,105.3164-29.4046,19.1896-5.18,38.8104-10.4766,58.6817-16.0174,4.3771-1.2205,8.9934-1.4247,13.4569-.5729,2.7718.5289,5.5421,1.0579,8.3235,1.5868.1788.0712,3.592,1.849,3.8768,5.6528.1771,2.7379-1.3524,5.4045-3.8768,6.6841-68.2312,20.6581-120.9242,37.3335-150.3653,46.6495-4.408,1.3872-15.6789,4.9427-21.1911,15.04-5.8299,10.6667-5.1545,28.5522,5.7604,35.8404,5.5122,3.6615,11.7692,3.4497,15.04,3.0573,48.3561-15.8924,96.747-31.8213,145.1031-47.7155,3.0938-.3559,6.1163.9601,7.7153,3.4132Z" style="fill:#27aae2;"/><path d="M475.1996,246.3248c-.9583,11.1285-8.2483,21.4741-14.4706,28.3717-4.658,5.191-10.8091,8.9254-17.5643,10.9167-69.0142,20.2675-133.5822,35.9116-202.987,56.5697-8,2.382-16.5695,2.3455-24.5348-.1788-57.8128-18.2761-115.5908-36.5505-173.4036-54.8266-3.2361-3.0573-3.9115-7.7865-1.7431-11.1997,1.7431-2.7031,5.0851-4.2309,8.533-3.9479,54.6131,15.8942,109.2279,31.7883,163.841,47.6808,3.6615.3194,10.7032.3924,16.7119-3.7691,12.0521-8.2483,12.3021-27.7692,5.4393-39.2536-6.4358-10.8073-19.165-14.3629-24.1772-15.7501-33.1738-9.2448-92.6949-25.8855-169.6726-46.3648-2.8802-1.316-4.658-4.1597-4.5156-7.1476.2135-4.1597,3.9827-6.1858,4.1597-6.2934,1.5877-.3412,3.1777-.6801,4.7688-1.018,7.7796-1.6521,15.8021-1.1382,23.4654.9891.0348.0097.0696.0193.1045.0289,29.8665,8.1077,59.1999,15.3959,87.5733,22.4359,30.7206,7.6094,62.5072,15.5035,94.898,24.4272,4.4097,1.2083,8.9966,1.849,13.5834,1.849,5.7587,0,11.448-.9948,16.8525-2.9149l123.7717-43.9815c10.9811-3.9021,22.8474-4.5771,34.204-1.962.0587.0135.1173.027.176.0405,15.6442,3.5903,28.7293,14.6494,33.3161,29.6529,1.5295,5.0486,2.1337,10.3473,1.6701,15.6459Z" style="fill:#2bb673;"/></svg>